<svg width="1501" height="862" viewBox="0 0 1501 862" fill="none" xmlns="http://www.w3.org/2000/svg">
<rect x="20.4669" y="20.4669" width="1460.07" height="821.066" rx="410.533" fill="white"/>
<rect x="20.4669" y="20.4669" width="1460.07" height="821.066" rx="410.533" stroke="black" stroke-width="40.9338"/>
<path d="M299.407 593.97V259.677H411.156C518.608 259.677 578.303 322.715 578.303 426.823C578.303 530.454 518.608 593.97 411.156 593.97H299.407ZM408.291 551.467C487.566 551.467 527.204 505.621 527.204 426.823C527.204 348.026 487.566 302.18 408.291 302.18H350.028V551.467H408.291ZM608.494 593.97V355.189H651.952V366.651C652.429 377.634 650.519 390.051 647.176 400.08L656.727 402.945C665.801 372.859 685.381 355.189 720.72 355.189H744.598V395.304H720.72C684.426 395.304 656.25 418.227 656.25 472.192V593.97H608.494ZM821.21 597.313C770.588 597.313 740.979 571.524 740.979 530.932C740.979 491.294 768.2 460.73 830.761 454.044L899.53 446.881V433.509C899.53 404.378 882.338 389.096 849.386 389.096C814.524 389.096 799.242 401.513 794.466 424.913H751.008C755.784 377.157 788.736 351.846 850.341 351.846C912.424 351.846 946.808 382.41 946.808 436.852V532.842C946.808 546.214 954.449 553.855 967.821 553.855H974.507V593.97H956.36C935.347 593.97 922.93 585.851 918.632 573.912C915.289 564.838 913.857 555.765 914.812 546.691L904.783 545.736C896.664 577.255 865.145 597.313 821.21 597.313ZM834.581 559.585C874.219 559.585 899.53 534.275 899.53 494.637V481.743L842.7 487.951C805.928 491.772 789.213 507.054 789.213 527.111C789.213 548.124 807.36 559.585 834.581 559.585ZM1091.55 692.825C1029.95 692.825 989.352 667.037 984.577 620.713H1030.9C1036.63 642.681 1055.26 655.575 1092.03 655.575C1134.05 655.575 1156.5 635.518 1156.5 598.268C1156.5 582.508 1156.98 572.002 1162.71 556.242L1153.63 552.422C1144.56 575.822 1121.64 597.313 1082.48 597.313C1019.92 597.313 979.324 550.034 979.324 474.579C979.324 399.125 1019.92 351.846 1082.48 351.846C1123.55 351.846 1146.47 372.859 1155.07 401.513L1164.14 398.647C1161.27 387.186 1159.84 377.634 1160.32 369.516V355.189H1204.25V582.508C1204.25 656.53 1164.62 692.825 1091.55 692.825ZM1093.94 557.198C1135.01 557.198 1158.41 525.678 1158.41 474.579C1158.41 423.48 1135.01 392.439 1094.42 392.439C1051.91 392.439 1028.03 422.048 1028.03 474.579C1028.03 527.111 1051.91 557.198 1093.94 557.198Z" fill="black"/>
</svg>
