<svg width="254" height="10" viewBox="0 0 254 10" fill="none" xmlns="http://www.w3.org/2000/svg">
<path d="M0.0103516 7.73779L1.30385e-08 7.05459L2.55684 4.36318C3.44189 3.42119 3.86631 2.91396 3.87148 2.22041C3.86631 1.44922 3.22451 0.952344 2.38086 0.947168C1.48545 0.952344 0.926465 1.5165 0.921289 2.35498H0.0414063C0.0310547 1.02998 1.05586 0.139746 2.41191 0.139746C3.77314 0.139746 4.73584 1.05586 4.74102 2.22041C4.73584 3.05889 4.34766 3.71104 3.02266 5.07744L1.3043 6.84756V6.90967H4.87559V7.73779H0.0103516ZM8.47296 7.84131C6.81154 7.84131 5.84884 6.44385 5.85402 3.99053C5.84884 1.55791 6.82189 0.139746 8.47296 0.139746C10.1189 0.139746 11.0919 1.55791 11.0919 3.99053C11.0919 6.44385 10.1344 7.84131 8.47296 7.84131ZM6.7546 3.99053C6.75978 5.93145 7.38605 7.01318 8.47296 7.01318C9.5547 7.01318 10.1861 5.93145 10.181 3.99053C10.1861 2.04961 9.54952 0.952344 8.47296 0.947168C7.3964 0.952344 6.75978 2.04961 6.7546 3.99053ZM12.1221 7.73779L12.1117 7.05459L14.6686 4.36318C15.5536 3.42119 15.9781 2.91396 15.9832 2.22041C15.9781 1.44922 15.3363 0.952344 14.4926 0.947168C13.5972 0.952344 13.0382 1.5165 13.033 2.35498H12.1531C12.1428 1.02998 13.1676 0.139746 14.5237 0.139746C15.8849 0.139746 16.8476 1.05586 16.8528 2.22041C16.8476 3.05889 16.4594 3.71104 15.1344 5.07744L13.416 6.84756V6.90967H16.9873V7.73779H12.1221ZM20.74 7.84131C19.4409 7.82578 18.0072 7.05459 18.0072 4.28037C18.0072 1.6252 19.0941 0.139746 20.8538 0.139746C22.1737 0.139746 23.095 0.952344 23.2865 2.12725H22.3652C22.1944 1.46475 21.6871 0.967871 20.8538 0.967871C19.622 0.967871 18.8819 2.01855 18.887 3.8249H18.9802C19.4098 3.19863 20.0982 2.83115 20.9056 2.83115C22.2358 2.83115 23.3486 3.86631 23.3486 5.31553C23.3486 6.72852 22.3186 7.85684 20.74 7.84131ZM19.0113 5.33623C19.0164 6.21611 19.7359 7.01836 20.74 7.02354C21.7078 7.01836 22.4428 6.25752 22.448 5.32588C22.4428 4.40459 21.7389 3.6541 20.7607 3.64893C19.7773 3.6541 19.0216 4.45117 19.0113 5.33623ZM31.0816 2.12725C31.004 1.39228 30.3208 0.967871 29.4254 0.967871C28.4316 0.967871 27.7846 1.48545 27.7795 2.19971C27.7846 2.98643 28.6593 3.28145 29.2287 3.42119L29.974 3.62822C30.7762 3.83525 32.0961 4.2959 32.0961 5.69854C32.0961 6.92002 31.1127 7.86719 29.3736 7.87236C27.7587 7.86719 26.7598 7.03389 26.6718 5.7917H27.6242C27.7018 6.63018 28.4834 7.02871 29.3736 7.02354C30.4087 7.02871 31.1851 6.49561 31.1851 5.67783C31.1851 4.94805 30.4916 4.66855 29.7048 4.446L28.7836 4.19756C27.6087 3.85596 26.8737 3.25557 26.8789 2.24111C26.8737 0.973047 28.002 0.139746 29.4564 0.139746C30.9108 0.139746 31.9563 0.988574 31.9925 2.12725H31.0816ZM32.8364 6.14365C32.8364 4.85488 33.9751 4.55986 34.9481 4.4874C35.3104 4.46152 36.2162 4.40977 36.4698 4.40459V3.94912C36.4698 3.23486 36.0454 2.8208 35.1966 2.8208C34.4875 2.8208 34.0579 3.14687 33.9337 3.57646H33.002C33.1159 2.6707 33.9958 2.04443 35.238 2.04443C35.9729 2.04443 37.3549 2.26182 37.3497 4.03193V7.73779H36.4698V6.97178H36.4284C36.2421 7.34961 35.7297 7.86719 34.7514 7.87236C33.6852 7.86719 32.8364 7.24092 32.8364 6.14365ZM33.7266 6.18506C33.7318 6.78027 34.2235 7.08047 34.9067 7.07529C35.9108 7.08047 36.4698 6.40762 36.4698 5.69854V5.13437C36.2058 5.1499 35.3208 5.21719 35.0516 5.23271C34.2442 5.28447 33.7318 5.56914 33.7266 6.18506ZM38.5662 7.73779V2.11689H39.4254V2.99678H39.4978C39.7307 2.39639 40.2742 2.04443 41.0092 2.04443C41.7441 2.04443 42.2462 2.39639 42.5101 2.99678H42.5723C42.8569 2.41709 43.4521 2.04443 44.2596 2.04443C45.2585 2.04443 45.9779 2.65518 45.9779 3.98018V7.73779H45.0877V3.99053C45.0825 3.1624 44.5649 2.8415 43.949 2.8415C43.1675 2.8415 42.7223 3.36943 42.7172 4.08369V7.73779H41.8166V3.89736C41.8218 3.26592 41.3663 2.8415 40.7193 2.8415C40.0465 2.8415 39.4564 3.41084 39.4564 4.22861V7.73779H38.5662ZM50.3206 3.57646C50.1964 3.11064 49.8393 2.80527 49.1819 2.8001C48.4884 2.80527 47.9967 3.17793 47.9915 3.64893C47.9967 4.02158 48.2969 4.2752 48.9542 4.43564L49.7927 4.64268C50.7968 4.88076 51.2885 5.38281 51.2937 6.16436C51.2885 7.1374 50.4966 7.85684 49.0888 7.85166C47.8259 7.85684 47.0754 7.29268 46.9253 6.26787H47.8569C47.9604 6.8165 48.359 7.08047 49.0681 7.07529C49.8703 7.08047 50.3724 6.74404 50.3724 6.21611C50.3724 5.81758 50.0877 5.55879 49.4511 5.40869L48.6022 5.21201C47.624 4.98428 47.1013 4.45117 47.1013 3.70068C47.1013 2.73799 47.9449 2.04443 49.1819 2.04443C50.3465 2.04443 51.0763 2.66553 51.1901 3.57646H50.3206ZM55.7916 5.42939V2.11689H56.6715V7.73779H55.7916V6.78545H55.7295C55.4655 7.35479 54.9066 7.81025 54.0629 7.81025C52.9967 7.81025 52.2358 7.1167 52.241 5.68818V2.11689H53.1313V5.62607C53.1313 6.4335 53.6333 6.95625 54.3527 6.95107C54.9894 6.95625 55.7864 6.48008 55.7916 5.42939ZM58.7782 4.36318V7.73779H57.888V2.11689H58.7472V2.99678H58.8196C59.0836 2.42227 59.6115 2.04443 60.4655 2.04443C61.6042 2.04443 62.3651 2.73799 62.3599 4.1665V7.73779H61.4696V4.22861C61.4696 3.35908 60.9935 2.8415 60.1964 2.8415C59.3786 2.8415 58.7782 3.39014 58.7782 4.36318ZM65.8537 9.96338C64.4925 9.96338 63.5712 9.36816 63.4729 8.32783H64.4045C64.5236 8.90234 65.0567 9.18701 65.8537 9.18701C66.8164 9.18701 67.4065 8.76777 67.4065 7.84131V6.70264H67.334C67.1425 7.01318 66.7854 7.6498 65.6985 7.65498C64.3321 7.6498 63.3073 6.61982 63.3073 4.84971C63.3073 3.121 64.2958 2.04443 65.7088 2.04443C66.8009 2.04443 67.1529 2.70693 67.3547 3.00713H67.4272V2.11689H68.2967V7.89307C68.2915 9.34229 67.2253 9.96338 65.8537 9.96338ZM64.2078 4.88076C64.2078 6.04531 64.7565 6.85791 65.8227 6.85791C66.8527 6.85791 67.422 6.11777 67.4272 4.88076C67.422 3.6748 66.8682 2.8415 65.8227 2.8415C64.741 2.8415 64.2078 3.74727 64.2078 4.88076ZM74.3942 7.73779H72.0651V0.243261H74.4874C76.6767 0.243261 77.9655 1.6459 77.9655 3.98018C77.9655 6.31963 76.6767 7.73779 74.3942 7.73779ZM72.9967 6.90967H74.3321C76.1695 6.90967 77.0546 5.79687 77.0546 3.98018C77.0546 2.16865 76.1695 1.07139 74.4253 1.07139H72.9967V6.90967ZM81.3662 7.85166C79.741 7.85684 78.7369 6.69746 78.7369 4.97393C78.7369 3.24521 79.7565 2.04443 81.2834 2.04443C82.4634 2.04443 83.7108 2.76904 83.7056 4.84971V5.22236H79.6271C79.6737 6.41279 80.3673 7.06494 81.3662 7.06494C82.039 7.06494 82.4634 6.76992 82.6705 6.42314H83.6228C83.3589 7.27715 82.5256 7.85684 81.3662 7.85166ZM79.6323 4.4667H82.805C82.7999 3.52988 82.2098 2.83115 81.2834 2.83115C80.3103 2.83115 79.6944 3.59717 79.6323 4.4667ZM87.7792 3.57646C87.655 3.11064 87.2978 2.80527 86.6405 2.8001C85.947 2.80527 85.4553 3.17793 85.4501 3.64893C85.4553 4.02158 85.7555 4.2752 86.4128 4.43564L87.2513 4.64268C88.2554 4.88076 88.7471 5.38281 88.7522 6.16436C88.7471 7.1374 87.9552 7.85684 86.5473 7.85166C85.2845 7.85684 84.534 7.29268 84.3839 6.26787H85.3155C85.419 6.8165 85.8176 7.08047 86.5266 7.07529C87.3289 7.08047 87.8309 6.74404 87.8309 6.21611C87.8309 5.81758 87.5463 5.55879 86.9097 5.40869L86.0608 5.21201C85.0826 4.98428 84.5598 4.45117 84.5598 3.70068C84.5598 2.73799 85.4035 2.04443 86.6405 2.04443C87.8051 2.04443 88.5348 2.66553 88.6487 3.57646H87.7792ZM89.6996 7.73779V2.11689H90.5898V7.73779H89.6996ZM89.5236 0.595215C89.5185 0.263965 89.8031 -2.78465e-07 90.1447 0.0051755C90.4863 -2.78465e-07 90.771 0.263965 90.7762 0.595215C90.771 0.921289 90.4863 1.18525 90.1447 1.18525C89.8031 1.18525 89.5185 0.921289 89.5236 0.595215ZM94.0733 9.96338C92.7121 9.96338 91.7908 9.36816 91.6925 8.32783H92.6241C92.7432 8.90234 93.2763 9.18701 94.0733 9.18701C95.036 9.18701 95.6261 8.76777 95.6261 7.84131V6.70264H95.5536C95.3621 7.01318 95.005 7.6498 93.9181 7.65498C92.5517 7.6498 91.5269 6.61982 91.5269 4.84971C91.5269 3.121 92.5154 2.04443 93.9284 2.04443C95.0205 2.04443 95.3725 2.70693 95.5743 3.00713H95.6468V2.11689H96.5163V7.89307C96.5111 9.34229 95.4449 9.96338 94.0733 9.96338ZM92.4274 4.88076C92.4274 6.04531 92.9761 6.85791 94.0423 6.85791C95.0723 6.85791 95.6416 6.11777 95.6468 4.88076C95.6416 3.6748 95.0878 2.8415 94.0423 2.8415C92.9606 2.8415 92.4274 3.74727 92.4274 4.88076ZM98.6127 4.36318V7.73779H97.7225V2.11689H98.5817V2.99678H98.6541C98.9181 2.42227 99.446 2.04443 100.3 2.04443C101.439 2.04443 102.2 2.73799 102.194 4.1665V7.73779H101.304V4.22861C101.304 3.35908 100.828 2.8415 100.031 2.8415C99.2131 2.8415 98.6127 3.39014 98.6127 4.36318ZM105.973 0.243261H107.091L109.617 6.41279H109.71L112.236 0.243261H113.354V7.73779H112.474V2.07549H112.401L110.072 7.73779H109.244L106.915 2.07549H106.853V7.73779H105.973V0.243261ZM117.044 7.85166C115.419 7.85684 114.415 6.69746 114.415 4.97393C114.415 3.24521 115.435 2.04443 116.961 2.04443C118.142 2.04443 119.389 2.76904 119.384 4.84971V5.22236H115.305C115.352 6.41279 116.045 7.06494 117.044 7.06494C117.717 7.06494 118.142 6.76992 118.349 6.42314H119.301C119.037 7.27715 118.204 7.85684 117.044 7.85166ZM115.31 4.4667H118.483C118.478 3.52988 117.888 2.83115 116.961 2.83115C115.988 2.83115 115.373 3.59717 115.31 4.4667ZM120.331 7.73779V2.11689H121.19V2.99678H121.263C121.496 2.39639 122.039 2.04443 122.774 2.04443C123.509 2.04443 124.011 2.39639 124.275 2.99678H124.337C124.622 2.41709 125.217 2.04443 126.024 2.04443C127.023 2.04443 127.743 2.65518 127.743 3.98018V7.73779H126.853V3.99053C126.847 3.1624 126.33 2.8415 125.714 2.8415C124.932 2.8415 124.487 3.36943 124.482 4.08369V7.73779H123.582V3.89736C123.587 3.26592 123.131 2.8415 122.484 2.8415C121.811 2.8415 121.221 3.41084 121.221 4.22861V7.73779H120.331ZM129.073 7.73779V0.243261H129.963V3.00713H130.036C130.227 2.70693 130.564 2.04443 131.661 2.04443C133.069 2.04443 134.058 3.1624 134.063 4.94287C134.058 6.72852 133.069 7.85684 131.671 7.85166C130.595 7.85684 130.227 7.18916 130.036 6.87861H129.932V7.73779H129.073ZM129.943 4.92217C129.943 6.18506 130.512 7.05459 131.537 7.05459C132.608 7.05459 133.157 6.11777 133.162 4.92217C133.157 3.74727 132.624 2.8415 131.537 2.8415C130.502 2.8415 129.943 3.6748 129.943 4.92217ZM137.37 7.85166C135.745 7.85684 134.741 6.69746 134.741 4.97393C134.741 3.24521 135.761 2.04443 137.287 2.04443C138.467 2.04443 139.715 2.76904 139.71 4.84971V5.22236H135.631C135.678 6.41279 136.371 7.06494 137.37 7.06494C138.043 7.06494 138.467 6.76992 138.675 6.42314H139.627C139.363 7.27715 138.53 7.85684 137.37 7.85166ZM135.636 4.4667H138.809C138.804 3.52988 138.214 2.83115 137.287 2.83115C136.314 2.83115 135.698 3.59717 135.636 4.4667ZM140.657 7.73779V2.11689H141.516V2.97607H141.578C141.78 2.40674 142.365 2.02891 143.028 2.02373C143.162 2.02891 143.39 2.03408 143.493 2.04443V2.94502C143.426 2.92949 143.188 2.88291 142.955 2.88291C142.148 2.88291 141.547 3.44189 141.547 4.19756V7.73779H140.657ZM147.277 3.57646C147.153 3.11064 146.796 2.80527 146.138 2.8001C145.445 2.80527 144.953 3.17793 144.948 3.64893C144.953 4.02158 145.253 4.2752 145.911 4.43564L146.749 4.64268C147.753 4.88076 148.245 5.38281 148.25 6.16436C148.245 7.1374 147.453 7.85684 146.045 7.85166C144.782 7.85684 144.032 7.29268 143.882 6.26787H144.813C144.917 6.8165 145.315 7.08047 146.025 7.07529C146.827 7.08047 147.329 6.74404 147.329 6.21611C147.329 5.81758 147.044 5.55879 146.408 5.40869L145.559 5.21201C144.58 4.98428 144.058 4.45117 144.058 3.70068C144.058 2.73799 144.901 2.04443 146.138 2.04443C147.303 2.04443 148.033 2.66553 148.147 3.57646H147.277ZM150.088 4.36318V7.73779H149.197V0.243261H150.088V2.99678H150.16C150.424 2.41709 150.926 2.04443 151.816 2.04443C152.965 2.04443 153.731 2.72246 153.731 4.1665V7.73779H152.841V4.22861C152.841 3.34355 152.355 2.8415 151.547 2.8415C150.709 2.8415 150.088 3.39014 150.088 4.36318ZM154.948 7.73779V2.11689H155.838V7.73779H154.948ZM154.772 0.595215C154.767 0.263965 155.052 -2.78465e-07 155.393 0.0051755C155.735 -2.78465e-07 156.019 0.263965 156.025 0.595215C156.019 0.921289 155.735 1.18525 155.393 1.18525C155.052 1.18525 154.767 0.921289 154.772 0.595215ZM157.044 9.84951V2.11689H157.904V3.00713H158.007C158.199 2.70693 158.54 2.04443 159.632 2.04443C161.045 2.04443 162.023 3.1624 162.023 4.94287C162.023 6.72852 161.045 7.85684 159.643 7.85166C158.571 7.85684 158.199 7.18916 158.007 6.87861H157.935V9.84951H157.044ZM157.914 4.92217C157.919 6.18506 158.483 7.05459 159.518 7.05459C160.585 7.05459 161.133 6.11777 161.133 4.92217C161.133 3.74727 160.6 2.8415 159.518 2.8415C158.468 2.8415 157.919 3.6748 157.914 4.92217ZM163.602 7.7999C163.24 7.79473 162.929 7.49453 162.94 7.12705C162.929 6.76475 163.24 6.46455 163.602 6.46455C163.97 6.46455 164.27 6.76475 164.265 7.12705C164.27 7.49453 163.97 7.79473 163.602 7.7999ZM168.333 7.73779H167.36L170.104 0.243261H171.087L173.83 7.73779H172.847L172.096 5.62607H169.084L168.333 7.73779ZM169.369 4.8083H171.812L170.621 1.45439H170.559L169.369 4.8083ZM175.409 0.243261V7.73779H174.519V0.243261H175.409ZM177.505 0.243261V7.73779H176.615V0.243261H177.505ZM181.274 7.73779V0.243261H183.82C185.575 0.243261 186.377 1.21631 186.377 2.55166C186.377 3.54541 185.932 4.32178 184.98 4.65303L186.667 7.73779H185.58L184.012 4.82383C183.955 4.829 183.893 4.829 183.831 4.829H182.205V7.73779H181.274ZM182.205 3.98018H183.789C184.985 3.98018 185.451 3.44189 185.456 2.55166C185.451 1.65625 184.985 1.07139 183.779 1.07139H182.205V3.98018ZM187.397 7.73779V2.11689H188.287V7.73779H187.397ZM187.221 0.595215C187.216 0.263965 187.5 -2.78465e-07 187.842 0.0051755C188.184 -2.78465e-07 188.468 0.263965 188.473 0.595215C188.468 0.921289 188.184 1.18525 187.842 1.18525C187.5 1.18525 187.216 0.921289 187.221 0.595215ZM191.771 9.96338C190.409 9.96338 189.488 9.36816 189.39 8.32783H190.321C190.44 8.90234 190.973 9.18701 191.771 9.18701C192.733 9.18701 193.323 8.76777 193.323 7.84131V6.70264H193.251C193.059 7.01318 192.702 7.6498 191.615 7.65498C190.249 7.6498 189.224 6.61982 189.224 4.84971C189.224 3.121 190.213 2.04443 191.626 2.04443C192.718 2.04443 193.07 2.70693 193.272 3.00713H193.344V2.11689H194.214V7.89307C194.208 9.34229 193.142 9.96338 191.771 9.96338ZM190.125 4.88076C190.125 6.04531 190.673 6.85791 191.74 6.85791C192.769 6.85791 193.339 6.11777 193.344 4.88076C193.339 3.6748 192.785 2.8415 191.74 2.8415C190.658 2.8415 190.125 3.74727 190.125 4.88076ZM196.31 4.36318V7.73779H195.42V0.243261H196.31V2.99678H196.382C196.646 2.41709 197.148 2.04443 198.039 2.04443C199.188 2.04443 199.954 2.72246 199.954 4.1665V7.73779H199.063V4.22861C199.063 3.34355 198.577 2.8415 197.77 2.8415C196.931 2.8415 196.31 3.39014 196.31 4.36318ZM203.624 2.11689V2.86221H202.443V6.12295C202.438 6.84238 202.801 6.96143 203.178 6.96143C203.339 6.96143 203.577 6.9459 203.706 6.94072V7.76885C203.567 7.78955 203.349 7.81025 203.085 7.81025C202.335 7.81025 201.548 7.34443 201.543 6.35068V2.86221H200.694V2.11689H201.543V0.771191H202.443V2.11689H203.624ZM207.583 3.57646C207.459 3.11064 207.102 2.80527 206.445 2.8001C205.751 2.80527 205.259 3.17793 205.254 3.64893C205.259 4.02158 205.559 4.2752 206.217 4.43564L207.055 4.64268C208.059 4.88076 208.551 5.38281 208.556 6.16436C208.551 7.1374 207.759 7.85684 206.351 7.85166C205.088 7.85684 204.338 7.29268 204.188 6.26787H205.12C205.223 6.8165 205.622 7.08047 206.331 7.07529C207.133 7.08047 207.635 6.74404 207.635 6.21611C207.635 5.81758 207.35 5.55879 206.714 5.40869L205.865 5.21201C204.887 4.98428 204.364 4.45117 204.364 3.70068C204.364 2.73799 205.208 2.04443 206.445 2.04443C207.609 2.04443 208.339 2.66553 208.453 3.57646H207.583ZM212.066 7.73779V0.243261H214.612C216.367 0.243261 217.169 1.21631 217.169 2.55166C217.169 3.54541 216.724 4.32178 215.772 4.65303L217.459 7.73779H216.372L214.804 4.82383C214.747 4.829 214.685 4.829 214.623 4.829H212.997V7.73779H212.066ZM212.997 3.98018H214.581C215.777 3.98018 216.243 3.44189 216.248 2.55166C216.243 1.65625 215.777 1.07139 214.571 1.07139H212.997V3.98018ZM220.497 7.85166C218.872 7.85684 217.868 6.69746 217.868 4.97393C217.868 3.24521 218.888 2.04443 220.415 2.04443C221.595 2.04443 222.842 2.76904 222.837 4.84971V5.22236H218.758C218.805 6.41279 219.498 7.06494 220.497 7.06494C221.17 7.06494 221.595 6.76992 221.802 6.42314H222.754C222.49 7.27715 221.657 7.85684 220.497 7.85166ZM218.764 4.4667H221.936C221.931 3.52988 221.341 2.83115 220.415 2.83115C219.442 2.83115 218.826 3.59717 218.764 4.4667ZM226.91 3.57646C226.786 3.11064 226.429 2.80527 225.772 2.8001C225.078 2.80527 224.586 3.17793 224.581 3.64893C224.586 4.02158 224.887 4.2752 225.544 4.43564L226.382 4.64268C227.387 4.88076 227.878 5.38281 227.883 6.16436C227.878 7.1374 227.086 7.85684 225.679 7.85166C224.416 7.85684 223.665 7.29268 223.515 6.26787H224.447C224.55 6.8165 224.949 7.08047 225.658 7.07529C226.46 7.08047 226.962 6.74404 226.962 6.21611C226.962 5.81758 226.677 5.55879 226.041 5.40869L225.192 5.21201C224.214 4.98428 223.691 4.45117 223.691 3.70068C223.691 2.73799 224.535 2.04443 225.772 2.04443C226.936 2.04443 227.666 2.66553 227.78 3.57646H226.91ZM231.191 7.85166C229.566 7.85684 228.562 6.69746 228.562 4.97393C228.562 3.24521 229.581 2.04443 231.108 2.04443C232.288 2.04443 233.536 2.76904 233.53 4.84971V5.22236H229.452C229.498 6.41279 230.192 7.06494 231.191 7.06494C231.864 7.06494 232.288 6.76992 232.495 6.42314H233.448C233.184 7.27715 232.35 7.85684 231.191 7.85166ZM229.457 4.4667H232.63C232.625 3.52988 232.035 2.83115 231.108 2.83115C230.135 2.83115 229.519 3.59717 229.457 4.4667ZM234.478 7.73779V2.11689H235.337V2.97607H235.399C235.601 2.40674 236.186 2.02891 236.848 2.02373C236.983 2.02891 237.211 2.03408 237.314 2.04443V2.94502C237.247 2.92949 237.009 2.88291 236.776 2.88291C235.968 2.88291 235.368 3.44189 235.368 4.19756V7.73779H234.478ZM242.775 2.11689L240.694 7.73779H239.773L237.703 2.11689H238.676L240.208 6.57842H240.27L241.802 2.11689H242.775ZM245.699 7.85166C244.074 7.85684 243.07 6.69746 243.07 4.97393C243.07 3.24521 244.09 2.04443 245.616 2.04443C246.797 2.04443 248.044 2.76904 248.039 4.84971V5.22236H243.96C244.007 6.41279 244.7 7.06494 245.699 7.06494C246.372 7.06494 246.797 6.76992 247.004 6.42314H247.956C247.692 7.27715 246.859 7.85684 245.699 7.85166ZM243.965 4.4667H247.138C247.133 3.52988 246.543 2.83115 245.616 2.83115C244.643 2.83115 244.028 3.59717 243.965 4.4667ZM251.108 7.85166C249.706 7.85684 248.717 6.72852 248.717 4.94287C248.717 3.1624 249.706 2.04443 251.119 2.04443C252.211 2.04443 252.552 2.70693 252.744 3.00713H252.806V0.243261H253.706V7.73779H252.837V6.87861H252.744C252.547 7.18916 252.18 7.85684 251.108 7.85166ZM249.618 4.92217C249.618 6.11777 250.166 7.05459 251.232 7.05459C252.262 7.05459 252.832 6.18506 252.837 4.92217C252.832 3.6748 252.278 2.8415 251.232 2.8415C250.151 2.8415 249.618 3.74727 249.618 4.92217Z" fill="#555555"/>
</svg>
