<svg width="3142" height="880" viewBox="0 0 3142 880" fill="none" xmlns="http://www.w3.org/2000/svg">
<g style="mix-blend-mode:difference">
<path d="M2273.56 271.438C2217.64 271.438 2182.03 233.817 2182.03 172.774C2182.03 111.731 2217.26 74.1099 2273.56 74.1099C2329.87 74.1099 2363.94 110.969 2363.94 171.239V183.914H2226.45C2228.76 218.083 2249.43 234.972 2274.32 234.972C2292.7 234.972 2308.79 225.76 2316.45 208.479H2360.88C2349 248.408 2317.98 271.438 2273.56 271.438ZM2319.9 150.506C2315.31 124.013 2297.31 110.576 2274.32 110.576C2251.34 110.576 2233.35 124.013 2227.98 150.506H2319.9Z" fill="white"/>
<path d="M2084.52 271.426C2031.66 271.426 2000.65 249.932 1998.72 208.467H2038.56C2041.24 226.89 2056.18 238.03 2085.28 238.03C2112.86 238.03 2127.02 228.045 2127.02 213.846C2127.02 198.874 2119.36 192.352 2074.55 186.211C2022.47 179.296 2001.79 164.324 2001.79 132.463C2001.79 98.2939 2032.05 74.1099 2084.14 74.1099C2131.62 74.1099 2162.64 93.688 2165.7 134.76H2126.26C2122.05 114.028 2105.2 107.506 2084.14 107.506C2060.77 107.506 2045.06 115.182 2045.06 129.774C2045.06 143.591 2055.4 148.59 2096.01 154.731C2150.39 162.408 2171.07 177.761 2171.07 211.93C2171.07 248.016 2140.05 271.438 2084.52 271.438V271.426Z" fill="white"/>
<path d="M1935.42 268.738V0H1980.23V268.738H1935.42Z" fill="white"/>
<path d="M1825.84 271.438C1769.93 271.438 1734.32 233.817 1734.32 172.774C1734.32 111.731 1769.54 74.1099 1825.84 74.1099C1882.14 74.1099 1916.23 110.969 1916.23 171.239V183.914H1778.74C1781.04 218.083 1801.72 234.972 1826.62 234.972C1844.99 234.972 1861.08 225.76 1868.74 208.479H1913.17C1901.3 248.408 1870.27 271.438 1825.84 271.438ZM1872.18 150.506C1867.59 124.013 1849.59 110.576 1826.62 110.576C1803.64 110.576 1785.63 124.013 1780.28 150.506H1872.18Z" fill="white"/>
<path d="M1347.72 268.63V76.6696H1388.31L1388.69 84.3461C1389.07 92.4035 1387.54 102.389 1384.87 111.22L1392.91 113.517C1400.18 88.952 1415.88 76.6577 1443.08 76.6577H1462.61V114.279H1443.08C1415.12 114.279 1392.53 129.632 1392.53 172.632V268.606H1347.72V268.63Z" fill="white"/>
<path d="M1238.92 271.438C1183.01 271.438 1147.39 233.817 1147.39 172.774C1147.39 111.731 1182.63 74.1099 1238.92 74.1099C1295.21 74.1099 1329.3 110.969 1329.3 171.239V183.914H1191.82C1194.11 218.083 1214.79 234.972 1239.69 234.972C1258.07 234.972 1274.16 225.76 1281.81 208.479H1326.24C1314.37 248.408 1283.34 271.438 1238.92 271.438ZM1285.26 150.506C1280.66 124.013 1262.66 110.576 1239.68 110.576C1216.69 110.576 1198.7 124.013 1193.34 150.506H1285.26Z" fill="white"/>
<path d="M1028.46 268.736L955.316 76.7877H1002.81L1041.49 185.045C1044.55 192.721 1048.77 219.214 1048.77 221.511H1056.8C1056.8 219.202 1061.4 192.721 1064.08 185.045L1103.14 76.7877H1151.02L1077.49 268.736H1028.46Z" fill="white"/>
<path d="M868.992 271.438C813.082 271.438 777.464 233.817 777.464 172.774C777.464 111.731 812.703 74.1099 868.992 74.1099C925.281 74.1099 959.379 110.969 959.379 171.239V183.914H821.892C824.195 218.083 844.866 234.972 869.763 234.972C888.142 234.972 904.23 225.76 911.888 208.479H956.316C944.443 248.408 913.42 271.438 868.992 271.438ZM915.331 150.506C910.736 124.013 892.737 110.576 869.751 110.576C846.766 110.576 828.766 124.013 823.412 150.506H915.331Z" fill="white"/>
<path d="M1664.02 115.027L1680.48 76.7877H1632.27L1592.48 177.273C1589.41 184.937 1584.06 211.406 1584.06 213.323H1575.64C1575.64 211.406 1570.29 184.937 1567.22 177.273L1527.82 76.7877H1478.84L1545.85 232.877L1556.8 258.584L1556.85 258.691L1557.82 260.988L1554.83 269.617C1552.27 276.615 1549.72 281.769 1545.08 285.327C1539.37 289.731 1530.5 291.706 1514.55 291.706H1495.56V327.506H1528.99C1554.38 327.506 1569.76 320.258 1582.17 302.442C1586.85 295.729 1590.93 287.517 1594.67 277.615L1664.01 115.027H1664.02Z" fill="white"/>
</g>
<path d="M217.575 597.438C208.626 597.438 201.529 594.816 196.285 589.572C191.042 584.271 188.42 576.918 188.42 567.513V567.427C188.42 558.022 191.042 550.698 196.285 545.454C201.586 540.21 208.683 537.588 217.575 537.588C222.705 537.588 227.208 538.586 231.084 540.581C235.017 542.576 238.152 545.312 240.489 548.789C242.883 552.208 244.194 556.084 244.422 560.416L244.507 560.758H230.913L230.827 560.245C230.257 557.281 228.804 554.83 226.467 552.892C224.187 550.955 221.223 549.986 217.575 549.986C213.015 549.986 209.395 551.524 206.716 554.602C204.037 557.68 202.698 561.955 202.698 567.427C202.698 572.956 204.037 577.26 206.716 580.338C209.395 583.416 213.043 584.955 217.66 584.955C221.194 584.955 224.101 584.043 226.381 582.219C228.718 580.338 230.229 577.801 230.913 574.609L230.998 574.267H244.507L244.422 574.609C244.194 578.941 242.883 582.846 240.489 586.323C238.152 589.743 235.017 592.45 231.084 594.445C227.151 596.44 222.648 597.438 217.575 597.438ZM272.38 567.085C272.38 559.276 270.955 552.037 268.105 545.369C265.255 538.643 261.294 532.743 256.221 527.67C251.205 522.597 245.334 518.664 238.608 515.871C231.882 513.021 224.614 511.596 216.805 511.596H216.121C208.312 511.596 201.045 513.021 194.319 515.871C187.593 518.664 181.694 522.597 176.621 527.67C171.605 532.743 167.672 538.643 164.822 545.369C162.029 552.037 160.632 559.276 160.632 567.085V567.855C160.632 575.664 162.029 582.931 164.822 589.657C167.672 596.326 171.605 602.197 176.621 607.27C181.694 612.343 187.593 616.305 194.319 619.155C201.045 621.948 208.312 623.344 216.121 623.344H216.805C224.614 623.344 231.882 621.948 238.608 619.155C245.334 616.305 251.205 612.343 256.221 607.27C261.294 602.197 265.255 596.326 268.105 589.657C270.955 582.931 272.38 575.664 272.38 567.855V567.085ZM284.008 567.085V567.855C284.008 577.203 282.269 585.952 278.792 594.103C275.372 602.254 270.613 609.379 264.514 615.478C258.415 621.577 251.29 626.336 243.139 629.756C235.045 633.233 226.267 634.972 216.805 634.972H216.121C206.716 634.972 197.938 633.233 189.788 629.756C181.637 626.336 174.512 621.577 168.413 615.478C162.314 609.379 157.554 602.254 154.134 594.103C150.714 585.952 149.004 577.203 149.004 567.855V567.085C149.004 557.68 150.714 548.931 154.134 540.837C157.554 532.686 162.314 525.561 168.413 519.462C174.512 513.363 181.637 508.604 189.788 505.184C197.938 501.707 206.716 499.968 216.121 499.968H216.805C226.267 499.968 235.045 501.707 243.139 505.184C251.29 508.604 258.415 513.363 264.514 519.462C270.613 525.561 275.372 532.686 278.792 540.837C282.269 548.931 284.008 557.68 284.008 567.085ZM328.731 629.158V615.991L372.25 572.301C377.779 566.772 381.969 562.212 384.819 558.621C387.669 555.03 389.635 551.809 390.718 548.96C391.801 546.053 392.342 543.003 392.342 539.811V539.64C392.342 535.707 391.402 532.23 389.521 529.209C387.697 526.188 385.189 523.823 381.997 522.113C378.805 520.403 375.1 519.548 370.882 519.548C366.094 519.548 361.819 520.545 358.057 522.54C354.352 524.535 351.417 527.214 349.251 530.577C347.085 533.883 346.002 537.617 346.002 541.778L345.916 542.376H327.79V541.778C327.79 534.425 329.671 527.87 333.433 522.113C337.195 516.356 342.325 511.853 348.823 508.604C355.378 505.355 362.646 503.73 370.626 503.73C378.606 503.73 385.645 505.241 391.744 508.262C397.843 511.283 402.602 515.444 406.022 520.745C409.499 525.989 411.238 531.945 411.238 538.614V538.785C411.238 543.459 410.383 547.905 408.673 552.123C406.963 556.341 404.027 560.986 399.866 566.059C395.762 571.132 390.005 577.345 382.596 584.698L348.054 618.556L354.552 606.244V618.556L348.054 612.999H413.204V629.158H328.731ZM471.775 631.21C461.971 631.21 453.535 628.616 446.467 623.429C439.456 618.243 434.07 610.89 430.308 601.371C426.546 591.852 424.665 580.566 424.665 567.513V567.342C424.665 554.289 426.546 543.003 430.308 533.484C434.07 523.965 439.456 516.641 446.467 511.511C453.535 506.324 461.971 503.73 471.775 503.73C481.579 503.73 489.986 506.324 496.997 511.511C504.065 516.641 509.48 523.965 513.242 533.484C517.061 543.003 518.971 554.289 518.971 567.342V567.513C518.971 580.566 517.061 591.852 513.242 601.371C509.48 610.89 504.065 618.243 496.997 623.429C489.986 628.616 481.579 631.21 471.775 631.21ZM471.775 615.136C477.646 615.136 482.633 613.227 486.737 609.408C490.898 605.589 494.062 600.117 496.228 592.992C498.451 585.867 499.562 577.374 499.562 567.513V567.342C499.562 557.481 498.451 549.017 496.228 541.949C494.062 534.824 490.898 529.352 486.737 525.533C482.633 521.714 477.646 519.804 471.775 519.804C465.904 519.804 460.888 521.714 456.727 525.533C452.623 529.352 449.488 534.824 447.322 541.949C445.156 549.017 444.073 557.481 444.073 567.342V567.513C444.073 577.374 445.156 585.867 447.322 592.992C449.488 600.117 452.623 605.589 456.727 609.408C460.888 613.227 465.904 615.136 471.775 615.136ZM531.2 629.158V615.991L574.72 572.301C580.248 566.772 584.438 562.212 587.288 558.621C590.138 555.03 592.104 551.809 593.187 548.96C594.27 546.053 594.812 543.003 594.812 539.811V539.64C594.812 535.707 593.871 532.23 591.99 529.209C590.166 526.188 587.658 523.823 584.466 522.113C581.274 520.403 577.57 519.548 573.352 519.548C568.564 519.548 564.289 520.545 560.527 522.54C556.822 524.535 553.886 527.214 551.72 530.577C549.554 533.883 548.471 537.617 548.471 541.778L548.386 542.376H530.26V541.778C530.26 534.425 532.141 527.87 535.903 522.113C539.665 516.356 544.795 511.853 551.293 508.604C557.848 505.355 565.115 503.73 573.095 503.73C581.075 503.73 588.114 505.241 594.213 508.262C600.312 511.283 605.072 515.444 608.492 520.745C611.969 525.989 613.707 531.945 613.707 538.614V538.785C613.707 543.459 612.852 547.905 611.142 552.123C609.432 556.341 606.497 560.986 602.336 566.059C598.232 571.132 592.475 577.345 585.065 584.698L550.523 618.556L557.021 606.244V618.556L550.523 612.999H615.674V629.158H531.2ZM675.698 631.21C669.314 631.21 663.215 630.07 657.401 627.79C651.644 625.453 646.457 621.834 641.84 616.932C637.28 611.973 633.689 605.589 631.067 597.78C628.445 589.914 627.134 580.423 627.134 569.308V569.137C627.134 555.4 629.072 543.659 632.948 533.912C636.881 524.108 642.524 516.641 649.877 511.511C657.287 506.324 666.122 503.73 676.382 503.73C683.735 503.73 690.347 505.041 696.218 507.663C702.146 510.228 707.076 513.848 711.009 518.522C714.942 523.196 717.564 528.582 718.875 534.681L719.046 535.707H699.809L699.467 534.852C698.384 531.774 696.759 529.124 694.593 526.901C692.427 524.621 689.805 522.882 686.727 521.685C683.649 520.431 680.144 519.804 676.211 519.804C669.2 519.804 663.471 521.856 659.025 525.96C654.636 530.064 651.359 535.508 649.193 542.291C647.084 549.017 645.915 556.483 645.687 564.691C645.63 565.318 645.602 565.974 645.602 566.658C645.602 567.285 645.602 567.94 645.602 568.624L649.278 588.973C649.278 593.818 650.418 598.236 652.698 602.226C655.035 606.159 658.17 609.294 662.103 611.631C666.093 613.911 670.539 615.051 675.441 615.051C680.286 615.051 684.675 613.911 688.608 611.631C692.598 609.351 695.762 606.273 698.099 602.397C700.436 598.521 701.604 594.189 701.604 589.401V589.23C701.604 584.271 700.493 579.882 698.27 576.063C696.047 572.244 692.969 569.251 689.036 567.085C685.103 564.862 680.657 563.751 675.698 563.751C670.739 563.751 666.236 564.834 662.189 567C658.199 569.166 655.035 572.158 652.698 575.977C650.418 579.739 649.278 584.043 649.278 588.888V588.973H644.148V568.026H645.944C647.597 564.321 650.048 560.986 653.297 558.022C656.546 555.001 660.422 552.607 664.925 550.841C669.428 549.074 674.472 548.19 680.058 548.19C687.981 548.19 694.992 549.957 701.091 553.491C707.19 556.968 711.978 561.784 715.455 567.94C718.989 574.039 720.756 580.965 720.756 588.717V588.888C720.756 597.096 718.789 604.392 714.856 610.776C710.98 617.103 705.651 622.09 698.868 625.738C692.085 629.386 684.362 631.21 675.698 631.21ZM811.734 631.21C802.5 631.21 794.406 629.813 787.452 627.02C780.555 624.227 775.083 620.238 771.036 615.051C766.989 609.807 764.709 603.565 764.196 596.326L764.111 595.044H782.835L783.006 596.155C783.576 599.917 785.144 603.195 787.709 605.988C790.331 608.724 793.751 610.833 797.969 612.315C802.187 613.797 807.032 614.538 812.504 614.538C818.033 614.538 822.792 613.768 826.782 612.229C830.772 610.69 833.85 608.496 836.016 605.646C838.239 602.796 839.35 599.461 839.35 595.642V595.557C839.35 590.598 837.555 586.665 833.964 583.758C830.43 580.794 824.559 578.428 816.351 576.661L802.928 573.84C790.844 571.275 781.838 567.171 775.91 561.528C769.982 555.828 767.018 548.418 767.018 539.298V539.213C767.075 532.202 769.013 526.046 772.832 520.745C776.651 515.387 781.923 511.226 788.649 508.262C795.375 505.241 803.099 503.73 811.82 503.73C820.37 503.73 827.922 505.184 834.477 508.091C841.032 510.998 846.219 515.073 850.038 520.317C853.857 525.504 855.994 531.575 856.45 538.529L856.536 539.897H837.811L837.64 538.785C837.127 534.909 835.702 531.603 833.365 528.867C831.085 526.131 828.093 524.051 824.388 522.626C820.683 521.144 816.38 520.403 811.478 520.403C806.405 520.403 801.987 521.172 798.225 522.711C794.463 524.193 791.556 526.274 789.504 528.953C787.452 531.632 786.426 534.795 786.426 538.443V538.529C786.426 543.146 788.25 546.908 791.898 549.815C795.546 552.721 801.218 555.001 808.913 556.654L822.336 559.561C830.829 561.328 837.754 563.722 843.112 566.743C848.47 569.764 852.432 573.526 854.997 578.029C857.562 582.532 858.844 587.976 858.844 594.36V594.445C858.844 601.969 856.935 608.496 853.116 614.025C849.354 619.497 843.939 623.743 836.871 626.764C829.86 629.728 821.481 631.21 811.734 631.21ZM896.724 630.782C890.739 630.782 885.495 629.642 880.992 627.362C876.489 625.082 872.984 621.891 870.476 617.787C867.968 613.683 866.714 608.952 866.714 603.594V603.423C866.714 598.179 868.025 593.676 870.647 589.914C873.269 586.095 877.059 583.074 882.018 580.851C887.034 578.628 893.076 577.317 900.144 576.918L934.173 574.866V587.862L902.623 589.828C897.095 590.17 892.82 591.51 889.799 593.847C886.835 596.127 885.353 599.176 885.353 602.995V603.166C885.353 607.099 886.835 610.206 889.799 612.486C892.82 614.766 896.81 615.906 901.768 615.906C906.1 615.906 909.976 615.022 913.396 613.255C916.873 611.488 919.609 609.066 921.604 605.988C923.599 602.853 924.597 599.347 924.597 595.471V568.71C924.597 563.751 923.058 559.875 919.98 557.082C916.902 554.232 912.484 552.807 906.727 552.807C901.426 552.807 897.151 553.947 893.903 556.227C890.711 558.507 888.716 561.442 887.918 565.033L887.747 565.803H870.305L870.39 564.862C870.846 559.675 872.585 555.03 875.606 550.926C878.627 546.765 882.816 543.488 888.174 541.094C893.532 538.7 899.887 537.503 907.24 537.503C914.593 537.503 920.949 538.728 926.307 541.179C931.665 543.63 935.826 547.079 938.79 551.524C941.754 555.97 943.236 561.186 943.236 567.171V629.158H924.597V614.965H924.255C922.488 618.214 920.208 621.036 917.415 623.429C914.622 625.766 911.458 627.59 907.924 628.901C904.447 630.155 900.714 630.782 896.724 630.782ZM957.517 629.158V539.213H976.156V553.149H976.498C978.436 548.418 981.6 544.628 985.989 541.778C990.378 538.928 995.508 537.503 1001.38 537.503C1005.48 537.503 1009.19 538.187 1012.49 539.555C1015.86 540.923 1018.74 542.946 1021.13 545.625C1023.52 548.247 1025.29 551.439 1026.43 555.201H1026.86C1028.4 551.553 1030.53 548.418 1033.27 545.796C1036.06 543.117 1039.28 541.065 1042.93 539.64C1046.64 538.215 1050.63 537.503 1054.9 537.503C1060.83 537.503 1065.99 538.757 1070.38 541.265C1074.77 543.716 1078.19 547.164 1080.64 551.61C1083.09 556.056 1084.31 561.271 1084.31 567.256V629.158H1065.67V571.788C1065.67 567.855 1064.99 564.52 1063.62 561.784C1062.31 559.048 1060.37 556.968 1057.81 555.543C1055.3 554.118 1052.19 553.405 1048.49 553.405C1044.84 553.405 1041.62 554.232 1038.83 555.885C1036.09 557.538 1033.93 559.846 1032.33 562.81C1030.79 565.774 1030.02 569.137 1030.02 572.899V629.158H1011.81V570.42C1011.81 566.943 1011.1 563.95 1009.67 561.442C1008.3 558.877 1006.37 556.911 1003.86 555.543C1001.35 554.118 998.329 553.405 994.795 553.405C991.204 553.405 987.984 554.289 985.134 556.056C982.341 557.766 980.146 560.131 978.55 563.152C976.954 566.173 976.156 569.65 976.156 573.583V629.158H957.517ZM1132.37 630.953C1124.84 630.953 1118.37 629.813 1112.96 627.533C1107.6 625.196 1103.38 621.976 1100.3 617.872C1097.23 613.711 1095.37 608.895 1094.75 603.423L1094.66 602.653H1112.96L1113.13 603.508C1114.04 607.612 1116.07 610.833 1119.2 613.17C1122.34 615.45 1126.72 616.59 1132.37 616.59C1136.13 616.59 1139.32 616.134 1141.94 615.222C1144.57 614.253 1146.59 612.885 1148.01 611.118C1149.44 609.351 1150.15 607.242 1150.15 604.791V604.705C1150.15 601.798 1149.21 599.461 1147.33 597.694C1145.45 595.927 1142.09 594.445 1137.24 593.248L1122.53 589.914C1116.83 588.603 1112.08 586.807 1108.26 584.527C1104.49 582.247 1101.67 579.454 1099.79 576.148C1097.91 572.842 1096.97 569.023 1096.97 564.691V564.606C1096.97 559.191 1098.42 554.46 1101.33 550.413C1104.24 546.309 1108.31 543.146 1113.56 540.923C1118.8 538.643 1124.87 537.503 1131.77 537.503C1138.84 537.503 1144.94 538.7 1150.07 541.094C1155.2 543.488 1159.19 546.765 1162.04 550.926C1164.94 555.03 1166.54 559.618 1166.82 564.691V565.717H1149.47L1149.38 565.119C1148.87 561.186 1147.1 557.994 1144.08 555.543C1141.06 553.035 1136.96 551.781 1131.77 551.781C1128.46 551.781 1125.58 552.265 1123.13 553.234C1120.68 554.203 1118.8 555.6 1117.49 557.424C1116.18 559.191 1115.52 561.271 1115.52 563.665V563.751C1115.52 565.575 1115.95 567.228 1116.81 568.71C1117.72 570.192 1119.17 571.474 1121.17 572.557C1123.16 573.64 1125.73 574.552 1128.86 575.293L1143.57 578.713C1152.74 580.822 1159.24 583.815 1163.06 587.691C1166.94 591.51 1168.88 596.668 1168.88 603.166V603.252C1168.88 608.724 1167.31 613.54 1164.17 617.701C1161.04 621.862 1156.71 625.111 1151.18 627.448C1145.71 629.785 1139.44 630.953 1132.37 630.953ZM1210.35 630.953C1203.79 630.953 1198.18 629.614 1193.5 626.935C1188.89 624.199 1185.35 620.323 1182.9 615.307C1180.45 610.291 1179.22 604.335 1179.22 597.438V539.213H1197.86V593.932C1197.86 600.715 1199.43 605.931 1202.57 609.579C1205.76 613.17 1210.55 614.965 1216.93 614.965C1220.24 614.965 1223.17 614.424 1225.74 613.341C1228.36 612.201 1230.61 610.633 1232.49 608.638C1234.37 606.586 1235.8 604.135 1236.77 601.285C1237.79 598.378 1238.3 595.186 1238.3 591.709V539.213H1256.86V629.158H1238.3V615.649H1237.88C1236.34 618.613 1234.29 621.264 1231.72 623.6C1229.16 625.88 1226.08 627.676 1222.49 628.987C1218.95 630.298 1214.91 630.953 1210.35 630.953ZM1271.57 629.158V539.213H1290.21V552.807H1290.55C1292.94 548.247 1296.45 544.571 1301.06 541.778C1305.68 538.928 1311.38 537.503 1318.16 537.503C1328.03 537.503 1335.66 540.495 1341.08 546.48C1346.49 552.408 1349.2 560.559 1349.2 570.933V629.158H1330.65V574.524C1330.65 567.741 1329.05 562.525 1325.86 558.877C1322.72 555.229 1317.96 553.405 1311.58 553.405C1307.25 553.405 1303.46 554.374 1300.21 556.312C1297.02 558.25 1294.54 560.958 1292.77 564.435C1291.06 567.912 1290.21 572.016 1290.21 576.747V629.158H1271.57ZM1403.07 660.878C1395.37 660.878 1388.65 659.795 1382.89 657.629C1377.19 655.463 1372.6 652.528 1369.13 648.823C1365.65 645.118 1363.45 640.985 1362.54 636.425L1362.37 635.656H1380.84L1381.1 636.34C1382.35 639.19 1384.86 641.498 1388.62 643.265C1392.44 645.089 1397.23 646.001 1402.98 646.001C1410.28 646.001 1415.89 644.149 1419.83 640.444C1423.76 636.796 1425.73 631.865 1425.73 625.652V613.255H1425.3C1423.59 616.504 1421.34 619.326 1418.54 621.72C1415.81 624.113 1412.62 625.966 1408.97 627.277C1405.32 628.588 1401.33 629.243 1397 629.243C1389.47 629.243 1382.89 627.391 1377.25 623.686C1371.6 619.924 1367.24 614.623 1364.17 607.783C1361.09 600.943 1359.55 592.849 1359.55 583.501V583.416C1359.55 574.011 1361.12 565.888 1364.25 559.048C1367.39 552.151 1371.78 546.851 1377.42 543.146C1383.12 539.384 1389.76 537.503 1397.34 537.503C1401.62 537.503 1405.52 538.215 1409.05 539.64C1412.64 541.065 1415.81 543.06 1418.54 545.625C1421.28 548.133 1423.53 551.097 1425.3 554.517H1425.73V539.213H1444.28V626.678C1444.28 633.518 1442.6 639.503 1439.23 644.633C1435.93 649.763 1431.17 653.753 1424.96 656.603C1418.8 659.453 1411.5 660.878 1403.07 660.878ZM1402.21 614.196C1406.94 614.196 1411.05 612.942 1414.53 610.434C1418.06 607.926 1420.8 604.392 1422.73 599.832C1424.73 595.272 1425.73 589.914 1425.73 583.758V583.672C1425.73 577.516 1424.73 572.187 1422.73 567.684C1420.8 563.124 1418.06 559.618 1414.53 557.167C1410.99 554.659 1406.89 553.405 1402.21 553.405C1397.37 553.405 1393.15 554.631 1389.56 557.082C1386.03 559.533 1383.29 563.038 1381.35 567.598C1379.41 572.101 1378.44 577.431 1378.44 583.587V583.672C1378.44 589.999 1379.41 595.443 1381.35 600.003C1383.29 604.506 1386.03 608.011 1389.56 610.519C1393.15 612.97 1397.37 614.196 1402.21 614.196ZM1493.19 629.158V505.782H1536.71C1548.97 505.782 1559.43 508.205 1568.09 513.05C1576.81 517.838 1583.48 524.792 1588.1 533.912C1592.77 543.032 1595.11 554.089 1595.11 567.085V567.256C1595.11 580.252 1592.8 591.396 1588.18 600.687C1583.56 609.921 1576.9 616.989 1568.17 621.891C1559.51 626.735 1549.02 629.158 1536.71 629.158H1493.19ZM1512.34 612.571H1534.92C1543.64 612.571 1551.02 610.833 1557.06 607.356C1563.1 603.879 1567.69 598.777 1570.83 592.051C1573.96 585.325 1575.53 577.117 1575.53 567.427V567.256C1575.53 557.623 1573.93 549.473 1570.74 542.804C1567.6 536.078 1563.02 531.005 1556.97 527.585C1550.99 524.108 1543.64 522.369 1534.92 522.369H1512.34V612.571ZM1646.07 630.953C1637.29 630.953 1629.71 629.072 1623.33 625.31C1617 621.492 1612.12 616.105 1608.7 609.151C1605.34 602.14 1603.66 593.904 1603.66 584.442V584.356C1603.66 575.008 1605.37 566.829 1608.79 559.818C1612.21 552.75 1617.03 547.278 1623.24 543.402C1629.45 539.469 1636.75 537.503 1645.13 537.503C1653.56 537.503 1660.8 539.384 1666.84 543.146C1672.94 546.851 1677.65 552.123 1680.95 558.963C1684.26 565.746 1685.91 573.64 1685.91 582.646V588.888H1612.81V575.806H1676.93L1667.79 588.033V580.851C1667.79 574.524 1666.82 569.28 1664.88 565.119C1663 560.901 1660.35 557.766 1656.93 555.714C1653.56 553.662 1649.66 552.636 1645.21 552.636C1640.82 552.636 1636.89 553.719 1633.41 555.885C1629.94 558.051 1627.2 561.243 1625.21 565.461C1623.21 569.622 1622.21 574.752 1622.21 580.851V588.033C1622.21 593.847 1623.18 598.834 1625.12 602.995C1627.12 607.099 1629.94 610.263 1633.59 612.486C1637.23 614.652 1641.54 615.735 1646.5 615.735C1650.14 615.735 1653.36 615.193 1656.16 614.11C1658.95 612.97 1661.26 611.488 1663.08 609.664C1664.96 607.783 1666.27 605.703 1667.02 603.423L1667.27 602.739H1684.88L1684.71 603.679C1683.97 607.213 1682.58 610.605 1680.52 613.854C1678.47 617.103 1675.79 620.038 1672.49 622.66C1669.24 625.225 1665.39 627.248 1660.95 628.73C1656.5 630.212 1651.54 630.953 1646.07 630.953ZM1730.46 630.953C1722.94 630.953 1716.47 629.813 1711.05 627.533C1705.69 625.196 1701.48 621.976 1698.4 617.872C1695.32 613.711 1693.47 608.895 1692.84 603.423L1692.75 602.653H1711.05L1711.22 603.508C1712.13 607.612 1714.16 610.833 1717.29 613.17C1720.43 615.45 1724.82 616.59 1730.46 616.59C1734.22 616.59 1737.41 616.134 1740.04 615.222C1742.66 614.253 1744.68 612.885 1746.11 611.118C1747.53 609.351 1748.24 607.242 1748.24 604.791V604.705C1748.24 601.798 1747.3 599.461 1745.42 597.694C1743.54 595.927 1740.18 594.445 1735.33 593.248L1720.63 589.914C1714.93 588.603 1710.17 586.807 1706.35 584.527C1702.59 582.247 1699.77 579.454 1697.88 576.148C1696 572.842 1695.06 569.023 1695.06 564.691V564.606C1695.06 559.191 1696.52 554.46 1699.42 550.413C1702.33 546.309 1706.41 543.146 1711.65 540.923C1716.89 538.643 1722.96 537.503 1729.86 537.503C1736.93 537.503 1743.03 538.7 1748.16 541.094C1753.29 543.488 1757.28 546.765 1760.13 550.926C1763.03 555.03 1764.63 559.618 1764.92 564.691V565.717H1747.56L1747.47 565.119C1746.96 561.186 1745.19 557.994 1742.17 555.543C1739.15 553.035 1735.05 551.781 1729.86 551.781C1726.56 551.781 1723.68 552.265 1721.23 553.234C1718.77 554.203 1716.89 555.6 1715.58 557.424C1714.27 559.191 1713.62 561.271 1713.62 563.665V563.751C1713.62 565.575 1714.04 567.228 1714.9 568.71C1715.81 570.192 1717.26 571.474 1719.26 572.557C1721.25 573.64 1723.82 574.552 1726.95 575.293L1741.66 578.713C1750.84 580.822 1757.33 583.815 1761.15 587.691C1765.03 591.51 1766.97 596.668 1766.97 603.166V603.252C1766.97 608.724 1765.4 613.54 1762.27 617.701C1759.13 621.862 1754.8 625.111 1749.27 627.448C1743.8 629.785 1737.53 630.953 1730.46 630.953ZM1778.51 629.158V539.213H1797.15V629.158H1778.51ZM1787.83 525.362C1784.87 525.362 1782.33 524.336 1780.22 522.284C1778.11 520.175 1777.06 517.667 1777.06 514.76C1777.06 511.739 1778.11 509.202 1780.22 507.15C1782.33 505.098 1784.87 504.072 1787.83 504.072C1790.85 504.072 1793.39 505.098 1795.44 507.15C1797.55 509.202 1798.61 511.739 1798.61 514.76C1798.61 517.667 1797.55 520.175 1795.44 522.284C1793.39 524.336 1790.85 525.362 1787.83 525.362ZM1852.13 660.878C1844.44 660.878 1837.71 659.795 1831.95 657.629C1826.25 655.463 1821.67 652.528 1818.19 648.823C1814.71 645.118 1812.52 640.985 1811.61 636.425L1811.43 635.656H1829.9L1830.16 636.34C1831.41 639.19 1833.92 641.498 1837.68 643.265C1841.5 645.089 1846.29 646.001 1852.05 646.001C1859.34 646.001 1864.96 644.149 1868.89 640.444C1872.82 636.796 1874.79 631.865 1874.79 625.652V613.255H1874.36C1872.65 616.504 1870.4 619.326 1867.61 621.72C1864.87 624.113 1861.68 625.966 1858.03 627.277C1854.38 628.588 1850.39 629.243 1846.06 629.243C1838.54 629.243 1831.95 627.391 1826.31 623.686C1820.67 619.924 1816.31 614.623 1813.23 607.783C1810.15 600.943 1808.61 592.849 1808.61 583.501V583.416C1808.61 574.011 1810.18 565.888 1813.32 559.048C1816.45 552.151 1820.84 546.851 1826.48 543.146C1832.18 539.384 1838.82 537.503 1846.4 537.503C1850.68 537.503 1854.58 538.215 1858.12 539.64C1861.71 541.065 1864.87 543.06 1867.61 545.625C1870.34 548.133 1872.59 551.097 1874.36 554.517H1874.79V539.213H1893.34V626.678C1893.34 633.518 1891.66 639.503 1888.3 644.633C1884.99 649.763 1880.23 653.753 1874.02 656.603C1867.86 659.453 1860.57 660.878 1852.13 660.878ZM1851.28 614.196C1856.01 614.196 1860.11 612.942 1863.59 610.434C1867.12 607.926 1869.86 604.392 1871.8 599.832C1873.79 595.272 1874.79 589.914 1874.79 583.758V583.672C1874.79 577.516 1873.79 572.187 1871.8 567.684C1869.86 563.124 1867.12 559.618 1863.59 557.167C1860.05 554.659 1855.95 553.405 1851.28 553.405C1846.43 553.405 1842.21 554.631 1838.62 557.082C1835.09 559.533 1832.35 563.038 1830.42 567.598C1828.48 572.101 1827.51 577.431 1827.51 583.587V583.672C1827.51 589.999 1828.48 595.443 1830.42 600.003C1832.35 604.506 1835.09 608.011 1838.62 610.519C1842.21 612.97 1846.43 614.196 1851.28 614.196ZM1908.05 629.158V539.213H1926.69V552.807H1927.03C1929.43 548.247 1932.93 544.571 1937.55 541.778C1942.17 538.928 1947.87 537.503 1954.65 537.503C1964.51 537.503 1972.15 540.495 1977.56 546.48C1982.98 552.408 1985.69 560.559 1985.69 570.933V629.158H1967.13V574.524C1967.13 567.741 1965.54 562.525 1962.34 558.877C1959.21 555.229 1954.45 553.405 1948.07 553.405C1943.73 553.405 1939.94 554.374 1936.69 556.312C1933.5 558.25 1931.02 560.958 1929.26 564.435C1927.55 567.912 1926.69 572.016 1926.69 576.747V629.158H1908.05ZM2034.17 629.158V505.782H2056.31L2096.24 604.192H2096.76L2136.68 505.782H2158.91V629.158H2141.39V538.187H2132.58L2152.59 509.202L2103.6 629.158H2089.4L2040.5 509.202L2060.5 538.187H2051.7V629.158H2034.17ZM2214.41 630.953C2205.63 630.953 2198.05 629.072 2191.66 625.31C2185.34 621.492 2180.46 616.105 2177.04 609.151C2173.68 602.14 2172 593.904 2172 584.442V584.356C2172 575.008 2173.71 566.829 2177.13 559.818C2180.55 552.75 2185.37 547.278 2191.58 543.402C2197.79 539.469 2205.09 537.503 2213.47 537.503C2221.9 537.503 2229.14 539.384 2235.18 543.146C2241.28 546.851 2245.98 552.123 2249.29 558.963C2252.6 565.746 2254.25 573.64 2254.25 582.646V588.888H2181.15V575.806H2245.27L2236.12 588.033V580.851C2236.12 574.524 2235.15 569.28 2233.22 565.119C2231.34 560.901 2228.68 557.766 2225.26 555.714C2221.9 553.662 2218 552.636 2213.55 552.636C2209.16 552.636 2205.23 553.719 2201.75 555.885C2198.28 558.051 2195.54 561.243 2193.54 565.461C2191.55 569.622 2190.55 574.752 2190.55 580.851V588.033C2190.55 593.847 2191.52 598.834 2193.46 602.995C2195.45 607.099 2198.28 610.263 2201.92 612.486C2205.57 614.652 2209.88 615.735 2214.83 615.735C2218.48 615.735 2221.7 615.193 2224.5 614.11C2227.29 612.97 2229.6 611.488 2231.42 609.664C2233.3 607.783 2234.61 605.703 2235.35 603.423L2235.61 602.739H2253.22L2253.05 603.679C2252.31 607.213 2250.91 610.605 2248.86 613.854C2246.81 617.103 2244.13 620.038 2240.83 622.66C2237.58 625.225 2233.73 627.248 2229.28 628.73C2224.84 630.212 2219.88 630.953 2214.41 630.953ZM2264.94 629.158V539.213H2283.58V553.149H2283.92C2285.86 548.418 2289.02 544.628 2293.41 541.778C2297.8 538.928 2302.93 537.503 2308.8 537.503C2312.91 537.503 2316.61 538.187 2319.92 539.555C2323.28 540.923 2326.16 542.946 2328.55 545.625C2330.95 548.247 2332.71 551.439 2333.85 555.201H2334.28C2335.82 551.553 2337.96 548.418 2340.69 545.796C2343.49 543.117 2346.71 541.065 2350.35 539.64C2354.06 538.215 2358.05 537.503 2362.32 537.503C2368.25 537.503 2373.41 538.757 2377.8 541.265C2382.19 543.716 2385.61 547.164 2388.06 551.61C2390.51 556.056 2391.74 561.271 2391.74 567.256V629.158H2373.1V571.788C2373.1 567.855 2372.41 564.52 2371.04 561.784C2369.73 559.048 2367.8 556.968 2365.23 555.543C2362.72 554.118 2359.62 553.405 2355.91 553.405C2352.26 553.405 2349.04 554.232 2346.25 555.885C2343.51 557.538 2341.35 559.846 2339.75 562.81C2338.21 565.774 2337.44 569.137 2337.44 572.899V629.158H2319.23V570.42C2319.23 566.943 2318.52 563.95 2317.09 561.442C2315.73 558.877 2313.79 556.911 2311.28 555.543C2308.77 554.118 2305.75 553.405 2302.22 553.405C2298.63 553.405 2295.41 554.289 2292.56 556.056C2289.76 557.766 2287.57 560.131 2285.97 563.152C2284.38 566.173 2283.58 569.65 2283.58 573.583V629.158H2264.94ZM2453.9 630.953C2449.62 630.953 2445.66 630.269 2442.01 628.901C2438.42 627.476 2435.23 625.51 2432.44 623.002C2429.7 620.494 2427.45 617.473 2425.68 613.939H2425.25V629.158H2406.7V505.782H2425.25V554.517H2425.68C2427.45 550.983 2429.73 547.962 2432.52 545.454C2435.32 542.889 2438.54 540.923 2442.18 539.555C2445.89 538.187 2449.85 537.503 2454.07 537.503C2461.59 537.503 2468.15 539.412 2473.73 543.231C2479.32 546.993 2483.68 552.351 2486.81 559.305C2489.95 566.259 2491.52 574.524 2491.52 584.1V584.185C2491.52 593.761 2489.95 602.055 2486.81 609.066C2483.74 616.02 2479.38 621.406 2473.73 625.225C2468.09 629.044 2461.48 630.953 2453.9 630.953ZM2448.94 614.965C2453.78 614.965 2457.97 613.74 2461.51 611.289C2465.04 608.838 2467.75 605.304 2469.63 600.687C2471.57 596.013 2472.54 590.512 2472.54 584.185V584.1C2472.54 577.773 2471.57 572.329 2469.63 567.769C2467.75 563.152 2465.04 559.618 2461.51 557.167C2457.97 554.659 2453.78 553.405 2448.94 553.405C2444.32 553.405 2440.22 554.688 2436.63 557.253C2433.09 559.761 2430.3 563.323 2428.25 567.94C2426.2 572.5 2425.17 577.887 2425.17 584.1V584.185C2425.17 590.398 2426.17 595.813 2428.16 600.43C2430.21 605.047 2433.04 608.638 2436.63 611.203C2440.22 613.711 2444.32 614.965 2448.94 614.965ZM2540.6 630.953C2531.82 630.953 2524.24 629.072 2517.85 625.31C2511.53 621.492 2506.65 616.105 2503.23 609.151C2499.87 602.14 2498.19 593.904 2498.19 584.442V584.356C2498.19 575.008 2499.9 566.829 2503.32 559.818C2506.74 552.75 2511.56 547.278 2517.77 543.402C2523.98 539.469 2531.28 537.503 2539.66 537.503C2548.09 537.503 2555.33 539.384 2561.37 543.146C2567.47 546.851 2572.18 552.123 2575.48 558.963C2578.79 565.746 2580.44 573.64 2580.44 582.646V588.888H2507.34V575.806H2571.46L2562.31 588.033V580.851C2562.31 574.524 2561.35 569.28 2559.41 565.119C2557.53 560.901 2554.88 557.766 2551.46 555.714C2548.09 553.662 2544.19 552.636 2539.74 552.636C2535.35 552.636 2531.42 553.719 2527.94 555.885C2524.47 558.051 2521.73 561.243 2519.74 565.461C2517.74 569.622 2516.74 574.752 2516.74 580.851V588.033C2516.74 593.847 2517.71 598.834 2519.65 602.995C2521.64 607.099 2524.47 610.263 2528.11 612.486C2531.76 614.652 2536.07 615.735 2541.02 615.735C2544.67 615.735 2547.89 615.193 2550.69 614.11C2553.48 612.97 2555.79 611.488 2557.61 609.664C2559.49 607.783 2560.8 605.703 2561.54 603.423L2561.8 602.739H2579.41L2579.24 603.679C2578.5 607.213 2577.11 610.605 2575.05 613.854C2573 617.103 2570.32 620.038 2567.02 622.66C2563.77 625.225 2559.92 627.248 2555.47 628.73C2551.03 630.212 2546.07 630.953 2540.6 630.953ZM2591.13 629.158V539.213H2609.77V554.602H2610.11C2611.54 549.302 2614.07 545.141 2617.72 542.12C2621.37 539.042 2625.76 537.503 2630.89 537.503C2632.26 537.503 2633.48 537.588 2634.56 537.759C2635.7 537.873 2636.62 538.016 2637.3 538.187V555.372C2636.56 555.087 2635.45 554.859 2633.97 554.688C2632.48 554.46 2630.83 554.346 2629.01 554.346C2625.07 554.346 2621.65 555.201 2618.75 556.911C2615.84 558.564 2613.62 560.986 2612.08 564.178C2610.54 567.313 2609.77 571.104 2609.77 575.55V629.158H2591.13ZM2679.11 630.953C2671.59 630.953 2665.12 629.813 2659.7 627.533C2654.35 625.196 2650.13 621.976 2647.05 617.872C2643.97 613.711 2642.12 608.895 2641.49 603.423L2641.41 602.653H2659.7L2659.88 603.508C2660.79 607.612 2662.81 610.833 2665.95 613.17C2669.08 615.45 2673.47 616.59 2679.11 616.59C2682.88 616.59 2686.07 616.134 2688.69 615.222C2691.31 614.253 2693.33 612.885 2694.76 611.118C2696.18 609.351 2696.9 607.242 2696.9 604.791V604.705C2696.9 601.798 2695.96 599.461 2694.08 597.694C2692.19 595.927 2688.83 594.445 2683.99 593.248L2669.28 589.914C2663.58 588.603 2658.82 586.807 2655 584.527C2651.24 582.247 2648.42 579.454 2646.54 576.148C2644.66 572.842 2643.72 569.023 2643.72 564.691V564.606C2643.72 559.191 2645.17 554.46 2648.08 550.413C2650.98 546.309 2655.06 543.146 2660.3 540.923C2665.55 538.643 2671.62 537.503 2678.51 537.503C2685.58 537.503 2691.68 538.7 2696.81 541.094C2701.94 543.488 2705.93 546.765 2708.78 550.926C2711.69 555.03 2713.28 559.618 2713.57 564.691V565.717H2696.21L2696.13 565.119C2695.61 561.186 2693.85 557.994 2690.83 555.543C2687.81 553.035 2683.7 551.781 2678.51 551.781C2675.21 551.781 2672.33 552.265 2669.88 553.234C2667.43 554.203 2665.55 555.6 2664.24 557.424C2662.93 559.191 2662.27 561.271 2662.27 563.665V563.751C2662.27 565.575 2662.7 567.228 2663.55 568.71C2664.46 570.192 2665.92 571.474 2667.91 572.557C2669.91 573.64 2672.47 574.552 2675.61 575.293L2690.31 578.713C2699.49 580.822 2705.99 583.815 2709.81 587.691C2713.68 591.51 2715.62 596.668 2715.62 603.166V603.252C2715.62 608.724 2714.05 613.54 2710.92 617.701C2707.78 621.862 2703.45 625.111 2697.92 627.448C2692.45 629.785 2686.18 630.953 2679.11 630.953ZM2727.17 629.158V505.782H2745.72V554.004H2746.15C2748.49 548.76 2752.02 544.713 2756.75 541.863C2761.54 538.956 2767.29 537.503 2774.02 537.503C2780.46 537.503 2786.05 539.013 2790.78 542.034C2795.57 544.998 2799.27 549.188 2801.89 554.602C2804.57 560.017 2805.91 566.344 2805.91 573.583V629.158H2787.36V577.089C2787.36 569.622 2785.56 563.808 2781.97 559.647C2778.38 555.486 2773.34 553.405 2766.84 553.405C2762.62 553.405 2758.92 554.403 2755.72 556.398C2752.59 558.393 2750.14 561.157 2748.37 564.691C2746.6 568.225 2745.72 572.358 2745.72 577.089V629.158H2727.17ZM2820.96 629.158V539.213H2839.6V629.158H2820.96ZM2830.28 525.362C2827.32 525.362 2824.78 524.336 2822.67 522.284C2820.56 520.175 2819.51 517.667 2819.51 514.76C2819.51 511.739 2820.56 509.202 2822.67 507.15C2824.78 505.098 2827.32 504.072 2830.28 504.072C2833.3 504.072 2835.84 505.098 2837.89 507.15C2840 509.202 2841.06 511.739 2841.06 514.76C2841.06 517.667 2840 520.175 2837.89 522.284C2835.84 524.336 2833.3 525.362 2830.28 525.362ZM2855 659.083V539.213H2873.63V554.602H2874.06C2875.83 551.069 2878.08 548.019 2880.82 545.454C2883.61 542.889 2886.8 540.923 2890.39 539.555C2893.98 538.187 2897.92 537.503 2902.19 537.503C2909.83 537.503 2916.47 539.412 2922.11 543.231C2927.76 546.993 2932.12 552.379 2935.19 559.39C2938.27 566.344 2939.81 574.609 2939.81 584.185V584.271C2939.81 593.847 2938.24 602.112 2935.11 609.066C2932.03 616.02 2927.7 621.406 2922.11 625.225C2916.53 629.044 2909.97 630.953 2902.45 630.953C2898.23 630.953 2894.27 630.269 2890.56 628.901C2886.92 627.533 2883.69 625.595 2880.9 623.088C2878.11 620.523 2875.8 617.502 2873.98 614.025H2873.63V659.083H2855ZM2897.32 614.965C2902.16 614.965 2906.35 613.74 2909.89 611.289C2913.42 608.781 2916.13 605.218 2918.01 600.601C2919.89 595.984 2920.83 590.541 2920.83 584.271V584.185C2920.83 577.801 2919.89 572.301 2918.01 567.684C2916.13 563.067 2913.42 559.533 2909.89 557.082C2906.35 554.631 2902.16 553.405 2897.32 553.405C2892.64 553.405 2888.51 554.688 2884.92 557.253C2881.33 559.761 2878.51 563.323 2876.46 567.94C2874.46 572.5 2873.46 577.915 2873.46 584.185V584.271C2873.46 590.484 2874.49 595.899 2876.54 600.516C2878.59 605.076 2881.39 608.638 2884.92 611.203C2888.51 613.711 2892.64 614.965 2897.32 614.965ZM2957 630.44C2953.81 630.44 2951.13 629.357 2948.96 627.191C2946.8 625.025 2945.71 622.347 2945.71 619.155C2945.71 616.02 2946.8 613.369 2948.96 611.203C2951.13 609.037 2953.81 607.954 2957 607.954C2960.13 607.954 2962.79 609.037 2964.95 611.203C2967.12 613.369 2968.2 616.02 2968.2 619.155C2968.2 622.347 2967.12 625.025 2964.95 627.191C2962.79 629.357 2960.13 630.44 2957 630.44ZM874.963 839.158L919.85 715.782H935.411V736.217H930.024L895.141 839.158H874.963ZM896.765 805.813L902.323 790.423H958.068L963.626 805.813H896.765ZM965.25 839.158L930.452 736.217V715.782H940.626L985.428 839.158H965.25ZM993.981 839.158V715.782H1012.53V839.158H993.981ZM1028.78 839.158V715.782H1047.34V839.158H1028.78ZM1097.02 839.158V715.782H1144.98C1153.36 715.782 1160.63 717.321 1166.79 720.399C1172.94 723.477 1177.67 727.838 1180.98 733.481C1184.34 739.124 1186.02 745.821 1186.02 753.573V753.744C1186.02 762.123 1183.89 769.447 1179.61 775.717C1175.39 781.987 1169.58 786.376 1162.17 788.884L1189.79 839.158H1167.64L1142.5 791.877C1142.28 791.877 1142.08 791.877 1141.91 791.877C1141.79 791.877 1141.62 791.877 1141.39 791.877H1116.17V839.158H1097.02ZM1116.17 776.059H1143.1C1150.46 776.059 1156.16 774.15 1160.2 770.331C1164.25 766.455 1166.27 760.983 1166.27 753.915V753.744C1166.27 746.961 1164.14 741.632 1159.86 737.756C1155.64 733.823 1149.86 731.856 1142.5 731.856H1116.17V776.059ZM1199.54 839.158V749.213H1218.17V839.158H1199.54ZM1208.85 735.362C1205.89 735.362 1203.35 734.336 1201.25 732.284C1199.14 730.175 1198.08 727.667 1198.08 724.76C1198.08 721.739 1199.14 719.202 1201.25 717.15C1203.35 715.098 1205.89 714.072 1208.85 714.072C1211.88 714.072 1214.41 715.098 1216.46 717.15C1218.57 719.202 1219.63 721.739 1219.63 724.76C1219.63 727.667 1218.57 730.175 1216.46 732.284C1214.41 734.336 1211.88 735.362 1208.85 735.362ZM1273.15 870.878C1265.46 870.878 1258.73 869.795 1252.98 867.629C1247.28 865.463 1242.69 862.528 1239.21 858.823C1235.73 855.118 1233.54 850.985 1232.63 846.425L1232.46 845.656H1250.92L1251.18 846.34C1252.43 849.19 1254.94 851.498 1258.7 853.265C1262.52 855.089 1267.31 856.001 1273.07 856.001C1280.36 856.001 1285.98 854.149 1289.91 850.444C1293.84 846.796 1295.81 841.865 1295.81 835.652V823.255H1295.38C1293.67 826.504 1291.42 829.326 1288.63 831.72C1285.89 834.113 1282.7 835.966 1279.05 837.277C1275.41 838.588 1271.42 839.243 1267.08 839.243C1259.56 839.243 1252.98 837.391 1247.33 833.686C1241.69 829.924 1237.33 824.623 1234.25 817.783C1231.17 810.943 1229.63 802.849 1229.63 793.501V793.416C1229.63 784.011 1231.2 775.888 1234.34 769.048C1237.47 762.151 1241.86 756.851 1247.5 753.146C1253.2 749.384 1259.84 747.503 1267.43 747.503C1271.7 747.503 1275.61 748.215 1279.14 749.64C1282.73 751.065 1285.89 753.06 1288.63 755.625C1291.37 758.133 1293.62 761.097 1295.38 764.517H1295.81V749.213H1314.36V836.678C1314.36 843.518 1312.68 849.503 1309.32 854.633C1306.01 859.763 1301.25 863.753 1295.04 866.603C1288.89 869.453 1281.59 870.878 1273.15 870.878ZM1272.3 824.196C1277.03 824.196 1281.13 822.942 1284.61 820.434C1288.14 817.926 1290.88 814.392 1292.82 809.832C1294.81 805.272 1295.81 799.914 1295.81 793.758V793.672C1295.81 787.516 1294.81 782.187 1292.82 777.684C1290.88 773.124 1288.14 769.618 1284.61 767.167C1281.08 764.659 1276.97 763.405 1272.3 763.405C1267.45 763.405 1263.24 764.631 1259.65 767.082C1256.11 769.533 1253.38 773.038 1251.44 777.598C1249.5 782.101 1248.53 787.431 1248.53 793.587V793.672C1248.53 799.999 1249.5 805.443 1251.44 810.003C1253.38 814.506 1256.11 818.011 1259.65 820.519C1263.24 822.97 1267.45 824.196 1272.3 824.196ZM1329.84 839.158V715.782H1348.4V764.004H1348.82C1351.16 758.76 1354.7 754.713 1359.43 751.863C1364.21 748.956 1369.97 747.503 1376.7 747.503C1383.14 747.503 1388.72 749.013 1393.46 752.034C1398.24 754.998 1401.95 759.188 1404.57 764.602C1407.25 770.017 1408.59 776.344 1408.59 783.583V839.158H1390.04V787.089C1390.04 779.622 1388.24 773.808 1384.65 769.647C1381.06 765.486 1376.01 763.405 1369.52 763.405C1365.3 763.405 1361.59 764.403 1358.4 766.398C1355.27 768.393 1352.81 771.157 1351.05 774.691C1349.28 778.225 1348.4 782.358 1348.4 787.089V839.158H1329.84ZM1454.59 840.953C1445.7 840.953 1439.06 838.958 1434.67 834.968C1430.34 830.922 1428.17 824.395 1428.17 815.389V763.918H1415.26V749.213H1428.17V725.786H1447.15V749.213H1464V763.918H1447.15V814.363C1447.15 818.923 1448.15 822.058 1450.14 823.768C1452.14 825.421 1455.1 826.248 1459.04 826.248C1460.01 826.248 1460.89 826.219 1461.69 826.162C1462.54 826.048 1463.31 825.963 1464 825.906V840.184C1462.91 840.355 1461.54 840.526 1459.89 840.697C1458.24 840.868 1456.47 840.953 1454.59 840.953ZM1509.48 840.953C1501.96 840.953 1495.49 839.813 1490.08 837.533C1484.72 835.196 1480.5 831.976 1477.42 827.872C1474.34 823.711 1472.49 818.895 1471.86 813.423L1471.78 812.653H1490.08L1490.25 813.508C1491.16 817.612 1493.18 820.833 1496.32 823.17C1499.45 825.45 1503.84 826.59 1509.48 826.59C1513.25 826.59 1516.44 826.134 1519.06 825.222C1521.68 824.253 1523.71 822.885 1525.13 821.118C1526.56 819.351 1527.27 817.242 1527.27 814.791V814.705C1527.27 811.798 1526.33 809.461 1524.45 807.694C1522.57 805.927 1519.2 804.445 1514.36 803.248L1499.65 799.914C1493.95 798.603 1489.19 796.807 1485.37 794.527C1481.61 792.247 1478.79 789.454 1476.91 786.148C1475.03 782.842 1474.09 779.023 1474.09 774.691V774.606C1474.09 769.191 1475.54 764.46 1478.45 760.413C1481.36 756.309 1485.43 753.146 1490.67 750.923C1495.92 748.643 1501.99 747.503 1508.89 747.503C1515.95 747.503 1522.05 748.7 1527.18 751.094C1532.31 753.488 1536.3 756.765 1539.15 760.926C1542.06 765.03 1543.66 769.618 1543.94 774.691V775.717H1526.58L1526.5 775.119C1525.99 771.186 1524.22 767.994 1521.2 765.543C1518.18 763.035 1514.07 761.781 1508.89 761.781C1505.58 761.781 1502.7 762.265 1500.25 763.234C1497.8 764.203 1495.92 765.6 1494.61 767.424C1493.3 769.191 1492.64 771.271 1492.64 773.665V773.751C1492.64 775.575 1493.07 777.228 1493.92 778.71C1494.84 780.192 1496.29 781.474 1498.28 782.557C1500.28 783.64 1502.84 784.552 1505.98 785.293L1520.69 788.713C1529.86 790.822 1536.36 793.815 1540.18 797.691C1544.05 801.51 1545.99 806.668 1545.99 813.166V813.252C1545.99 818.724 1544.43 823.54 1541.29 827.701C1538.16 831.862 1533.82 835.111 1528.29 837.448C1522.82 839.785 1516.55 840.953 1509.48 840.953ZM1590.97 839.158V715.782H1638.94C1647.32 715.782 1654.58 717.321 1660.74 720.399C1666.9 723.477 1671.63 727.838 1674.93 733.481C1678.3 739.124 1679.98 745.821 1679.98 753.573V753.744C1679.98 762.123 1677.84 769.447 1673.56 775.717C1669.35 781.987 1663.53 786.376 1656.12 788.884L1683.74 839.158H1661.59L1636.46 791.877C1636.23 791.877 1636.03 791.877 1635.86 791.877C1635.75 791.877 1635.57 791.877 1635.35 791.877H1610.12V839.158H1590.97ZM1610.12 776.059H1637.06C1644.41 776.059 1650.11 774.15 1654.16 770.331C1658.2 766.455 1660.23 760.983 1660.23 753.915V753.744C1660.23 746.961 1658.09 741.632 1653.81 737.756C1649.6 733.823 1643.81 731.856 1636.46 731.856H1610.12V776.059ZM1730.85 840.953C1722.07 840.953 1714.49 839.072 1708.11 835.31C1701.78 831.492 1696.91 826.105 1693.49 819.151C1690.13 812.14 1688.45 803.904 1688.45 794.442V794.356C1688.45 785.008 1690.16 776.829 1693.58 769.818C1697 762.75 1701.81 757.278 1708.02 753.402C1714.24 749.469 1721.53 747.503 1729.91 747.503C1738.35 747.503 1745.59 749.384 1751.63 753.146C1757.73 756.851 1762.43 762.123 1765.74 768.963C1769.04 775.746 1770.7 783.64 1770.7 792.646V798.888H1697.59V785.806H1761.72L1752.57 798.033V790.851C1752.57 784.524 1751.6 779.28 1749.66 775.119C1747.78 770.901 1745.13 767.766 1741.71 765.714C1738.35 763.662 1734.44 762.636 1730 762.636C1725.61 762.636 1721.68 763.719 1718.2 765.885C1714.72 768.051 1711.99 771.243 1709.99 775.461C1708 779.622 1707 784.752 1707 790.851V798.033C1707 803.847 1707.97 808.834 1709.91 812.995C1711.9 817.099 1714.72 820.263 1718.37 822.486C1722.02 824.652 1726.32 825.735 1731.28 825.735C1734.93 825.735 1738.15 825.193 1740.94 824.11C1743.73 822.97 1746.04 821.488 1747.87 819.664C1749.75 817.783 1751.06 815.703 1751.8 813.423L1752.06 812.739H1769.67L1769.5 813.679C1768.76 817.213 1767.36 820.605 1765.31 823.854C1763.26 827.103 1760.58 830.038 1757.27 832.66C1754.02 835.225 1750.18 837.248 1745.73 838.73C1741.28 840.212 1736.32 840.953 1730.85 840.953ZM1815.24 840.953C1807.72 840.953 1801.25 839.813 1795.84 837.533C1790.48 835.196 1786.26 831.976 1783.18 827.872C1780.1 823.711 1778.25 818.895 1777.62 813.423L1777.54 812.653H1795.84L1796.01 813.508C1796.92 817.612 1798.94 820.833 1802.08 823.17C1805.21 825.45 1809.6 826.59 1815.24 826.59C1819.01 826.59 1822.2 826.134 1824.82 825.222C1827.44 824.253 1829.47 822.885 1830.89 821.118C1832.32 819.351 1833.03 817.242 1833.03 814.791V814.705C1833.03 811.798 1832.09 809.461 1830.21 807.694C1828.33 805.927 1824.96 804.445 1820.12 803.248L1805.41 799.914C1799.71 798.603 1794.95 796.807 1791.13 794.527C1787.37 792.247 1784.55 789.454 1782.67 786.148C1780.79 782.842 1779.85 779.023 1779.85 774.691V774.606C1779.85 769.191 1781.3 764.46 1784.21 760.413C1787.11 756.309 1791.19 753.146 1796.43 750.923C1801.68 748.643 1807.75 747.503 1814.65 747.503C1821.71 747.503 1827.81 748.7 1832.94 751.094C1838.07 753.488 1842.06 756.765 1844.91 760.926C1847.82 765.03 1849.42 769.618 1849.7 774.691V775.717H1832.34L1832.26 775.119C1831.75 771.186 1829.98 767.994 1826.96 765.543C1823.94 763.035 1819.83 761.781 1814.65 761.781C1811.34 761.781 1808.46 762.265 1806.01 763.234C1803.56 764.203 1801.68 765.6 1800.37 767.424C1799.06 769.191 1798.4 771.271 1798.4 773.665V773.751C1798.4 775.575 1798.83 777.228 1799.68 778.71C1800.6 780.192 1802.05 781.474 1804.04 782.557C1806.04 783.64 1808.6 784.552 1811.74 785.293L1826.44 788.713C1835.62 790.822 1842.12 793.815 1845.94 797.691C1849.81 801.51 1851.75 806.668 1851.75 813.166V813.252C1851.75 818.724 1850.18 823.54 1847.05 827.701C1843.91 831.862 1839.58 835.111 1834.05 837.448C1828.58 839.785 1822.31 840.953 1815.24 840.953ZM1901 840.953C1892.23 840.953 1884.64 839.072 1878.26 835.31C1871.93 831.492 1867.06 826.105 1863.64 819.151C1860.28 812.14 1858.6 803.904 1858.6 794.442V794.356C1858.6 785.008 1860.31 776.829 1863.73 769.818C1867.15 762.75 1871.96 757.278 1878.18 753.402C1884.39 749.469 1891.68 747.503 1900.06 747.503C1908.5 747.503 1915.74 749.384 1921.78 753.146C1927.88 756.851 1932.58 762.123 1935.89 768.963C1939.19 775.746 1940.85 783.64 1940.85 792.646V798.888H1867.74V785.806H1931.87L1922.72 798.033V790.851C1922.72 784.524 1921.75 779.28 1919.81 775.119C1917.93 770.901 1915.28 767.766 1911.86 765.714C1908.5 763.662 1904.59 762.636 1900.15 762.636C1895.76 762.636 1891.83 763.719 1888.35 765.885C1884.87 768.051 1882.14 771.243 1880.14 775.461C1878.15 779.622 1877.15 784.752 1877.15 790.851V798.033C1877.15 803.847 1878.12 808.834 1880.06 812.995C1882.05 817.099 1884.87 820.263 1888.52 822.486C1892.17 824.652 1896.47 825.735 1901.43 825.735C1905.08 825.735 1908.3 825.193 1911.09 824.11C1913.89 822.97 1916.19 821.488 1918.02 819.664C1919.9 817.783 1921.21 815.703 1921.95 813.423L1922.21 812.739H1939.82L1939.65 813.679C1938.91 817.213 1937.51 820.605 1935.46 823.854C1933.41 827.103 1930.73 830.038 1927.42 832.66C1924.17 835.225 1920.33 837.248 1915.88 838.73C1911.43 840.212 1906.48 840.953 1901 840.953ZM1951.54 839.158V749.213H1970.18V764.602H1970.52C1971.94 759.302 1974.48 755.141 1978.13 752.12C1981.78 749.042 1986.16 747.503 1991.29 747.503C1992.66 747.503 1993.89 747.588 1994.97 747.759C1996.11 747.873 1997.02 748.016 1997.71 748.187V765.372C1996.97 765.087 1995.85 764.859 1994.37 764.688C1992.89 764.46 1991.24 764.346 1989.41 764.346C1985.48 764.346 1982.06 765.201 1979.15 766.911C1976.25 768.564 1974.02 770.986 1972.48 774.178C1970.95 777.313 1970.18 781.104 1970.18 785.55V839.158H1951.54ZM2033.19 839.158L2000.79 749.213H2020.45L2043.02 821.032H2043.45L2065.94 749.213H2085.35L2053.11 839.158H2033.19ZM2127.5 840.953C2118.72 840.953 2111.14 839.072 2104.76 835.31C2098.43 831.492 2093.56 826.105 2090.14 819.151C2086.78 812.14 2085.09 803.904 2085.09 794.442V794.356C2085.09 785.008 2086.8 776.829 2090.22 769.818C2093.64 762.75 2098.46 757.278 2104.67 753.402C2110.89 749.469 2118.18 747.503 2126.56 747.503C2135 747.503 2142.24 749.384 2148.28 753.146C2154.38 756.851 2159.08 762.123 2162.39 768.963C2165.69 775.746 2167.34 783.64 2167.34 792.646V798.888H2094.24V785.806H2158.37L2149.22 798.033V790.851C2149.22 784.524 2148.25 779.28 2146.31 775.119C2144.43 770.901 2141.78 767.766 2138.36 765.714C2135 763.662 2131.09 762.636 2126.65 762.636C2122.26 762.636 2118.32 763.719 2114.85 765.885C2111.37 768.051 2108.63 771.243 2106.64 775.461C2104.64 779.622 2103.65 784.752 2103.65 790.851V798.033C2103.65 803.847 2104.62 808.834 2106.55 812.995C2108.55 817.099 2111.37 820.263 2115.02 822.486C2118.67 824.652 2122.97 825.735 2127.93 825.735C2131.58 825.735 2134.8 825.193 2137.59 824.11C2140.38 822.97 2142.69 821.488 2144.52 819.664C2146.4 817.783 2147.71 815.703 2148.45 813.423L2148.71 812.739H2166.32L2166.15 813.679C2165.41 817.213 2164.01 820.605 2161.96 823.854C2159.91 827.103 2157.23 830.038 2153.92 832.66C2150.67 835.225 2146.82 837.248 2142.38 838.73C2137.93 840.212 2132.97 840.953 2127.5 840.953ZM2211.72 840.953C2204.08 840.953 2197.44 839.044 2191.8 835.225C2186.16 831.406 2181.8 826.02 2178.72 819.066C2175.64 812.055 2174.1 803.761 2174.1 794.185V794.1C2174.1 784.524 2175.64 776.259 2178.72 769.305C2181.85 762.351 2186.21 756.993 2191.8 753.231C2197.44 749.412 2204.03 747.503 2211.55 747.503C2215.77 747.503 2219.7 748.187 2223.35 749.555C2227 750.923 2230.22 752.889 2233.01 755.454C2235.86 757.962 2238.17 760.983 2239.94 764.517H2240.28V715.782H2258.92V839.158H2240.28V823.939H2239.94C2238.17 827.473 2235.89 830.494 2233.1 833.002C2230.36 835.51 2227.2 837.476 2223.61 838.901C2220.02 840.269 2216.05 840.953 2211.72 840.953ZM2216.6 824.965C2221.27 824.965 2225.37 823.711 2228.91 821.203C2232.5 818.638 2235.29 815.047 2237.29 810.43C2239.34 805.813 2240.36 800.398 2240.36 794.185V794.1C2240.36 787.887 2239.34 782.5 2237.29 777.94C2235.23 773.323 2232.44 769.761 2228.91 767.253C2225.37 764.688 2221.27 763.405 2216.6 763.405C2211.75 763.405 2207.56 764.659 2204.03 767.167C2200.49 769.618 2197.76 773.152 2195.82 777.769C2193.94 782.329 2193 787.773 2193 794.1V794.185C2193 800.512 2193.94 806.013 2195.82 810.687C2197.76 815.304 2200.49 818.838 2204.03 821.289C2207.56 823.74 2211.75 824.965 2216.6 824.965Z" fill="white"/>
</svg>
