<svg width="189" height="53" viewBox="0 0 189 53" fill="none" xmlns="http://www.w3.org/2000/svg">
<g style="mix-blend-mode:difference">
<path d="M136.495 16.2959C133.137 16.2959 130.999 14.0373 130.999 10.3726C130.999 6.70781 133.115 4.44922 136.495 4.44922C139.875 4.44922 141.92 6.66208 141.92 10.2804V11.0414H133.666C133.805 13.0927 135.046 14.1066 136.54 14.1066C137.644 14.1066 138.609 13.5536 139.069 12.5161H141.736C141.024 14.9133 139.161 16.2959 136.495 16.2959ZM139.277 9.03571C139.001 7.44519 137.92 6.6385 136.54 6.6385C135.16 6.6385 134.08 7.44519 133.758 9.03571H139.277Z" fill="white"/>
<path d="M125.145 16.2952C121.972 16.2952 120.11 15.0048 119.994 12.5154H122.386C122.547 13.6215 123.444 14.2903 125.191 14.2903C126.846 14.2903 127.697 13.6908 127.697 12.8384C127.697 11.9395 127.237 11.548 124.547 11.1793C121.42 10.7641 120.178 9.86526 120.178 7.9525C120.178 5.90112 121.995 4.44922 125.122 4.44922C127.973 4.44922 129.835 5.6246 130.019 8.0904H127.651C127.398 6.84571 126.387 6.45416 125.122 6.45416C123.719 6.45416 122.776 6.91502 122.776 7.79102C122.776 8.62057 123.397 8.92067 125.835 9.28936C129.1 9.75023 130.341 10.672 130.341 12.7233C130.341 14.8898 128.479 16.2959 125.145 16.2959V16.2952Z" fill="white"/>
<path d="M116.194 16.1338V0H118.884V16.1338H116.194Z" fill="white"/>
<path d="M109.616 16.2959C106.259 16.2959 104.121 14.0373 104.121 10.3726C104.121 6.70781 106.235 4.44922 109.616 4.44922C112.996 4.44922 115.042 6.66208 115.042 10.2804V11.0414H106.788C106.925 13.0927 108.167 14.1066 109.662 14.1066C110.765 14.1066 111.731 13.5536 112.191 12.5161H114.858C114.145 14.9133 112.283 16.2959 109.616 16.2959ZM112.398 9.03571C112.122 7.44519 111.041 6.6385 109.662 6.6385C108.283 6.6385 107.201 7.44519 106.88 9.03571H112.398Z" fill="white"/>
<path d="M80.9111 16.1273V4.60289H83.3482L83.371 5.06375C83.3938 5.54748 83.3018 6.14696 83.1415 6.67713L83.624 6.81503C84.061 5.34027 85.0033 4.60217 86.6363 4.60217H87.8088V6.86076H86.6363C84.9576 6.86076 83.6012 7.78249 83.6012 10.364V16.1259H80.9111V16.1273Z" fill="white"/>
<path d="M74.3792 16.2959C71.0226 16.2959 68.8843 14.0373 68.8843 10.3726C68.8843 6.70781 70.9998 4.44922 74.3792 4.44922C77.7585 4.44922 79.8057 6.66208 79.8057 10.2804V11.0414H71.5515C71.6891 13.0927 72.9308 14.1066 74.4255 14.1066C75.5289 14.1066 76.4947 13.5536 76.9545 12.5161H79.6217C78.909 14.9133 77.0464 16.2959 74.3792 16.2959ZM77.1612 9.03571C76.8853 7.44519 75.8048 6.6385 74.4248 6.6385C73.0448 6.6385 71.965 7.44519 71.6428 9.03571H77.1612Z" fill="white"/>
<path d="M61.7445 16.1337L57.353 4.60999H60.2042L62.5265 11.1092C62.7104 11.5701 62.9634 13.1606 62.9634 13.2985H63.446C63.446 13.1599 63.7218 11.5701 63.8829 11.1092L66.228 4.60999H69.1019L64.6876 16.1337H61.7445Z" fill="white"/>
<path d="M52.1704 16.2959C48.8139 16.2959 46.6755 14.0373 46.6755 10.3726C46.6755 6.70781 48.7911 4.44922 52.1704 4.44922C55.5498 4.44922 57.5969 6.66208 57.5969 10.2804V11.0414H49.3428C49.4811 13.0927 50.722 14.1066 52.2168 14.1066C53.3202 14.1066 54.286 13.5536 54.7457 12.5161H57.413C56.7002 14.9133 54.8377 16.2959 52.1704 16.2959ZM54.9525 9.03571C54.6766 7.44519 53.596 6.6385 52.2161 6.6385C50.8361 6.6385 49.7555 7.44519 49.434 9.03571H54.9525Z" fill="white"/>
<path d="M99.9003 6.90573L100.888 4.60999H97.9943L95.6051 10.6427C95.4212 11.1028 95.0997 12.6919 95.0997 12.8069H94.5943C94.5943 12.6919 94.2729 11.1028 94.089 10.6427L91.7232 4.60999H88.783L92.8059 13.9809L93.4631 15.5242L93.466 15.5307L93.5244 15.6686L93.3448 16.1866C93.1916 16.6067 93.0383 16.9161 92.7596 17.1298C92.4168 17.3941 91.8843 17.5127 90.927 17.5127H89.7866V19.662H91.7938C93.3177 19.662 94.2415 19.2269 94.9864 18.1572C95.2672 17.7543 95.5124 17.2612 95.7369 16.6668L99.8996 6.90573H99.9003Z" fill="white"/>
</g>
<path d="M139.304 48.7995C138.838 48.7995 138.431 48.6832 138.082 48.4505C137.736 48.2144 137.468 47.8807 137.276 47.4496C137.088 47.0184 136.994 46.5102 136.994 45.9251V45.9148C136.994 45.3262 137.088 44.8163 137.276 44.3852C137.464 43.954 137.731 43.622 138.077 43.3894C138.422 43.1532 138.831 43.0352 139.304 43.0352C139.56 43.0352 139.8 43.0762 140.022 43.1584C140.245 43.2371 140.441 43.35 140.612 43.4971C140.784 43.6409 140.919 43.8137 141.018 44.0156H141.1V40.946H142.219V48.7071H141.1V47.8294H141.018C140.908 48.0313 140.77 48.2058 140.602 48.353C140.434 48.4967 140.241 48.6079 140.022 48.6866C139.803 48.7619 139.564 48.7995 139.304 48.7995ZM139.622 47.8448C139.93 47.8448 140.197 47.7678 140.423 47.6138C140.648 47.4598 140.821 47.2391 140.941 46.9517C141.061 46.6608 141.121 46.3186 141.121 45.9251V45.9148C141.121 45.5178 141.059 45.1756 140.936 44.8882C140.816 44.6007 140.643 44.38 140.417 44.226C140.195 44.0686 139.93 43.9899 139.622 43.9899C139.314 43.9899 139.047 44.0686 138.821 44.226C138.599 44.38 138.427 44.6007 138.308 44.8882C138.191 45.1722 138.133 45.5144 138.133 45.9148V45.9251C138.133 46.322 138.191 46.6642 138.308 46.9517C138.427 47.2391 138.599 47.4598 138.821 47.6138C139.047 47.7678 139.314 47.8448 139.622 47.8448Z" fill="white"/>
<path d="M133.703 48.8149C133.159 48.8149 132.692 48.6986 132.302 48.4659C131.912 48.2298 131.61 47.8961 131.398 47.4649C131.19 47.0338 131.085 46.5239 131.085 45.9353V45.9302C131.085 45.3484 131.19 44.8403 131.398 44.4057C131.61 43.9711 131.908 43.6323 132.291 43.3893C132.678 43.1464 133.13 43.0249 133.647 43.0249C134.167 43.0249 134.613 43.1412 134.986 43.3739C135.363 43.6066 135.652 43.9334 135.854 44.3543C136.056 44.7718 136.157 45.2612 136.157 45.8224V46.2125H131.65V45.4169H135.602L135.068 46.156V45.7095C135.068 45.3125 135.007 44.984 134.884 44.7239C134.764 44.4604 134.598 44.2637 134.386 44.1336C134.174 44.0036 133.929 43.9386 133.652 43.9386C133.375 43.9386 133.126 44.007 132.907 44.1439C132.692 44.2774 132.521 44.4758 132.394 44.7393C132.271 45.0028 132.209 45.3262 132.209 45.7095V46.156C132.209 46.5222 132.271 46.8353 132.394 47.0954C132.517 47.3554 132.692 47.5539 132.918 47.6908C133.147 47.8277 133.417 47.8961 133.729 47.8961C133.968 47.8961 134.174 47.8636 134.345 47.7986C134.519 47.7302 134.661 47.6463 134.771 47.5471C134.884 47.4478 134.961 47.3503 135.002 47.2545L135.022 47.2134H136.1L136.09 47.2596C136.042 47.4444 135.958 47.6292 135.838 47.814C135.719 47.9954 135.559 48.1613 135.361 48.3119C135.166 48.4625 134.93 48.5839 134.653 48.6763C134.379 48.7687 134.062 48.8149 133.703 48.8149Z" fill="white"/>
<path d="M127.461 48.7071L125.444 43.1327H126.63L128.021 47.5779H128.103L129.489 43.1327H130.664L128.652 48.7071H127.461Z" fill="white"/>
<path d="M121.845 48.7071V43.1327H122.959V43.9745H123.047C123.146 43.6768 123.32 43.4458 123.57 43.2815C123.823 43.1173 124.135 43.0352 124.504 43.0352C124.597 43.0352 124.687 43.0403 124.776 43.0506C124.865 43.0608 124.937 43.0728 124.992 43.0865V44.1131C124.893 44.0926 124.794 44.0772 124.694 44.0669C124.598 44.0566 124.498 44.0515 124.391 44.0515C124.107 44.0515 123.858 44.1062 123.642 44.2157C123.43 44.3252 123.262 44.4792 123.139 44.6777C123.019 44.8728 122.959 45.1055 122.959 45.3758V48.7071H121.845Z" fill="white"/>
<path d="M118.278 48.8149C117.734 48.8149 117.267 48.6986 116.876 48.4659C116.486 48.2298 116.185 47.8961 115.973 47.4649C115.764 47.0338 115.66 46.5239 115.66 45.9353V45.9302C115.66 45.3484 115.764 44.8403 115.973 44.4057C116.185 43.9711 116.483 43.6323 116.866 43.3893C117.253 43.1464 117.705 43.0249 118.221 43.0249C118.741 43.0249 119.188 43.1412 119.561 43.3739C119.937 43.6066 120.227 43.9334 120.428 44.3543C120.63 44.7718 120.731 45.2612 120.731 45.8224V46.2125H116.225V45.4169H120.177L119.643 46.156V45.7095C119.643 45.3125 119.582 44.984 119.458 44.7239C119.339 44.4604 119.173 44.2637 118.96 44.1336C118.748 44.0036 118.504 43.9386 118.226 43.9386C117.949 43.9386 117.701 44.007 117.482 44.1439C117.267 44.2774 117.095 44.4758 116.969 44.7393C116.846 45.0028 116.784 45.3262 116.784 45.7095V46.156C116.784 46.5222 116.846 46.8353 116.969 47.0954C117.092 47.3554 117.267 47.5539 117.492 47.6908C117.722 47.8277 117.992 47.8961 118.303 47.8961C118.543 47.8961 118.748 47.8636 118.919 47.7986C119.094 47.7302 119.236 47.6463 119.345 47.5471C119.458 47.4478 119.535 47.3503 119.576 47.2545L119.597 47.2134H120.675L120.665 47.2596C120.617 47.4444 120.533 47.6292 120.413 47.814C120.293 47.9954 120.134 48.1613 119.936 48.3119C119.741 48.4625 119.505 48.5839 119.227 48.6763C118.954 48.7687 118.637 48.8149 118.278 48.8149Z" fill="white"/>
<path d="M112.508 48.8149C112.06 48.8149 111.67 48.7499 111.338 48.6199C111.006 48.4864 110.742 48.3033 110.547 48.0706C110.352 47.8345 110.238 47.5608 110.203 47.2494V47.2391H111.322V47.2494C111.394 47.4581 111.531 47.6275 111.733 47.7575C111.935 47.8876 112.202 47.9526 112.534 47.9526C112.763 47.9526 112.963 47.9201 113.134 47.8551C113.309 47.79 113.446 47.6994 113.545 47.583C113.644 47.4667 113.694 47.3332 113.694 47.1826V47.1724C113.694 46.9978 113.624 46.8507 113.483 46.7309C113.343 46.6112 113.112 46.5136 112.79 46.4383L111.897 46.233C111.548 46.1543 111.259 46.0465 111.03 45.9096C110.801 45.7728 110.631 45.6051 110.522 45.4066C110.412 45.2047 110.357 44.9686 110.357 44.6983V44.6931C110.357 44.368 110.45 44.0806 110.635 43.8308C110.819 43.5776 111.074 43.3808 111.399 43.2405C111.728 43.0968 112.103 43.0249 112.523 43.0249C112.948 43.0249 113.317 43.0916 113.632 43.2251C113.95 43.3551 114.202 43.5365 114.387 43.7692C114.572 43.9985 114.681 44.2654 114.715 44.5699V44.5751H113.648V44.5648C113.596 44.3697 113.473 44.2072 113.278 44.0772C113.086 43.9471 112.833 43.8821 112.518 43.8821C112.316 43.8821 112.137 43.9146 111.979 43.9796C111.822 44.0412 111.697 44.1285 111.605 44.2414C111.516 44.3509 111.471 44.481 111.471 44.6315V44.6418C111.471 44.7581 111.5 44.8608 111.558 44.9498C111.62 45.0353 111.716 45.1123 111.846 45.1808C111.976 45.2458 112.144 45.304 112.349 45.3553L113.237 45.5555C113.771 45.6821 114.168 45.8652 114.428 46.1047C114.691 46.3442 114.823 46.6659 114.823 47.0697V47.08C114.823 47.4222 114.722 47.725 114.52 47.9885C114.318 48.2486 114.043 48.4522 113.694 48.5993C113.348 48.7431 112.953 48.8149 112.508 48.8149Z" fill="white"/>
<path d="M106.913 48.8149C106.369 48.8149 105.902 48.6986 105.512 48.4659C105.122 48.2298 104.82 47.8961 104.608 47.4649C104.4 47.0338 104.295 46.5239 104.295 45.9353V45.9302C104.295 45.3484 104.4 44.8403 104.608 44.4057C104.82 43.9711 105.118 43.6323 105.501 43.3893C105.888 43.1464 106.34 43.0249 106.857 43.0249C107.377 43.0249 107.823 43.1412 108.196 43.3739C108.573 43.6066 108.862 43.9334 109.064 44.3543C109.266 44.7718 109.367 45.2612 109.367 45.8224V46.2125H104.86V45.4169H108.812L108.278 46.156V45.7095C108.278 45.3125 108.217 44.984 108.094 44.7239C107.974 44.4604 107.808 44.2637 107.596 44.1336C107.384 44.0036 107.139 43.9386 106.862 43.9386C106.584 43.9386 106.336 44.007 106.117 44.1439C105.902 44.2774 105.731 44.4758 105.604 44.7393C105.481 45.0028 105.419 45.3262 105.419 45.7095V46.156C105.419 46.5222 105.481 46.8353 105.604 47.0954C105.727 47.3554 105.902 47.5539 106.128 47.6908C106.357 47.8277 106.627 47.8961 106.939 47.8961C107.178 47.8961 107.384 47.8636 107.555 47.7986C107.729 47.7302 107.871 47.6463 107.981 47.5471C108.094 47.4478 108.171 47.3503 108.212 47.2545L108.232 47.2134H109.31L109.3 47.2596C109.252 47.4444 109.168 47.6292 109.048 47.814C108.929 47.9954 108.769 48.1613 108.571 48.3119C108.376 48.4625 108.14 48.5839 107.863 48.6763C107.589 48.7687 107.272 48.8149 106.913 48.8149Z" fill="white"/>
<path d="M98.043 48.7071V41.3002H100.964C101.47 41.3002 101.908 41.3943 102.278 41.5825C102.647 41.7673 102.931 42.0291 103.13 42.3678C103.332 42.7032 103.433 43.1001 103.433 43.5587V43.569C103.433 44.0686 103.306 44.5083 103.053 44.8881C102.8 45.2646 102.447 45.5298 101.995 45.6838L103.653 48.7071H102.324L100.815 45.8583C100.805 45.8583 100.794 45.8583 100.784 45.8583C100.774 45.8583 100.763 45.8583 100.753 45.8583H99.1928V48.7071H98.043ZM99.1928 44.9241H100.851C101.292 44.9241 101.634 44.8094 101.877 44.5802C102.12 44.3475 102.242 44.0207 102.242 43.5998V43.5895C102.242 43.1788 102.115 42.8555 101.862 42.6194C101.612 42.3832 101.263 42.2652 100.815 42.2652H99.1928V44.9241Z" fill="white"/>
<path d="M91.8316 48.8149C91.3833 48.8149 90.9932 48.7499 90.6612 48.6199C90.3293 48.4864 90.0658 48.3033 89.8708 48.0706C89.6757 47.8345 89.5611 47.5608 89.5269 47.2494V47.2391H90.6459V47.2494C90.7177 47.4581 90.8546 47.6275 91.0565 47.7575C91.2584 47.8876 91.5253 47.9526 91.8572 47.9526C92.0865 47.9526 92.2867 47.9201 92.4578 47.8551C92.6323 47.79 92.7692 47.6994 92.8684 47.583C92.9677 47.4667 93.0173 47.3332 93.0173 47.1826V47.1724C93.0173 46.9978 92.9471 46.8507 92.8068 46.7309C92.6665 46.6112 92.4356 46.5136 92.1139 46.4383L91.2207 46.233C90.8717 46.1543 90.5825 46.0465 90.3533 45.9096C90.124 45.7728 89.9546 45.6051 89.8451 45.4066C89.7356 45.2047 89.6808 44.9686 89.6808 44.6983V44.6931C89.6808 44.368 89.7732 44.0806 89.958 43.8308C90.1428 43.5776 90.3978 43.3808 90.7228 43.2405C91.0514 43.0968 91.4261 43.0249 91.847 43.0249C92.2713 43.0249 92.6409 43.0916 92.9557 43.2251C93.2739 43.3551 93.5255 43.5365 93.7103 43.7692C93.895 43.9985 94.0045 44.2654 94.0388 44.5699V44.5751H92.9711V44.5648C92.9198 44.3697 92.7966 44.2072 92.6015 44.0772C92.4099 43.9471 92.1567 43.8821 91.8418 43.8821C91.6399 43.8821 91.4603 43.9146 91.3029 43.9796C91.1455 44.0412 91.0206 44.1285 90.9282 44.2414C90.8392 44.3509 90.7947 44.481 90.7947 44.6315V44.6418C90.7947 44.7581 90.8238 44.8608 90.882 44.9498C90.9436 45.0353 91.0394 45.1123 91.1694 45.1808C91.2994 45.2458 91.4671 45.304 91.6724 45.3553L92.5605 45.5555C93.0943 45.6821 93.4912 45.8652 93.7513 46.1047C94.0148 46.3442 94.1466 46.6659 94.1466 47.0697V47.08C94.1466 47.4222 94.0456 47.725 93.8437 47.9885C93.6418 48.2486 93.3663 48.4522 93.0173 48.5993C92.6717 48.7431 92.2764 48.8149 91.8316 48.8149Z" fill="white"/>
<path d="M88.1869 48.7431C87.5778 48.7431 87.1363 48.6268 86.8626 48.3941C86.5922 48.158 86.4571 47.773 86.4571 47.2392V44.0105H85.5845V43.1328H86.4571V41.7263H87.5966V43.1328H88.7926V44.0105H87.5966V46.9671C87.5966 47.2682 87.6565 47.4855 87.7763 47.619C87.896 47.749 88.0945 47.8141 88.3717 47.8141C88.4538 47.8141 88.524 47.8123 88.5821 47.8089C88.6437 47.8055 88.7139 47.8004 88.7926 47.7935V48.6867C88.7036 48.7004 88.6078 48.7123 88.5051 48.7226C88.4025 48.7363 88.2964 48.7431 88.1869 48.7431Z" fill="white"/>
<path d="M79.9893 48.7071V40.946H81.1031V43.9745H81.1904C81.3273 43.6768 81.5292 43.4441 81.7961 43.2764C82.063 43.1087 82.4001 43.0249 82.8073 43.0249C83.2213 43.0249 83.5721 43.1053 83.8595 43.2662C84.147 43.427 84.366 43.6631 84.5166 43.9745C84.6671 44.2825 84.7424 44.6572 84.7424 45.0986V48.7071H83.6234V45.3604C83.6234 44.895 83.5259 44.5494 83.3308 44.3236C83.1392 44.0943 82.8381 43.9796 82.4274 43.9796C82.1571 43.9796 81.9227 44.0395 81.7242 44.1593C81.5257 44.2757 81.3717 44.4433 81.2622 44.6623C81.1562 44.8779 81.1031 45.1363 81.1031 45.4374V48.7071H79.9893Z" fill="white"/>
<path d="M75.9545 50.6731C75.4823 50.6731 75.0716 50.608 74.7226 50.478C74.377 50.348 74.1032 50.1666 73.9013 49.9339C73.6994 49.7012 73.5762 49.4309 73.5317 49.1229L73.5369 49.1126H74.6661L74.6713 49.1229C74.7192 49.3145 74.8544 49.4719 75.0768 49.5951C75.2992 49.7183 75.5969 49.7799 75.9699 49.7799C76.4285 49.7799 76.7861 49.6755 77.0427 49.4668C77.3028 49.2581 77.4328 48.9655 77.4328 48.5891V47.4957H77.3456C77.2361 47.6942 77.0958 47.8653 76.9247 48.009C76.7536 48.1493 76.5585 48.2554 76.3395 48.3273C76.1205 48.3991 75.8827 48.4351 75.626 48.4351C75.1538 48.4351 74.7431 48.3221 74.3941 48.0963C74.0485 47.867 73.7816 47.5522 73.5933 47.1518C73.4086 46.748 73.3162 46.2843 73.3162 45.7608V45.7505C73.3162 45.2201 73.4103 44.7513 73.5985 44.3441C73.7867 43.9334 74.0553 43.6135 74.4044 43.3842C74.7534 43.1515 75.1692 43.0352 75.6517 43.0352C75.9118 43.0352 76.1496 43.0762 76.3652 43.1583C76.5842 43.2405 76.7775 43.3568 76.9452 43.5074C77.1129 43.658 77.2515 43.8376 77.361 44.0464H77.4277V43.1327H78.5416V48.5942C78.5416 49.0151 78.4355 49.3813 78.2233 49.6927C78.0146 50.0041 77.7169 50.2453 77.3302 50.4164C76.9435 50.5875 76.4849 50.6731 75.9545 50.6731ZM75.9391 47.5111C76.2539 47.5111 76.5243 47.4376 76.7501 47.2904C76.976 47.1398 77.1488 46.9328 77.2686 46.6693C77.3918 46.4058 77.4534 46.1013 77.4534 45.7556V45.7454C77.4534 45.4032 77.3918 45.0986 77.2686 44.8317C77.1488 44.5648 76.976 44.356 76.7501 44.2055C76.5243 44.0549 76.2539 43.9796 75.9391 43.9796C75.6243 43.9796 75.3557 44.0549 75.1332 44.2055C74.9142 44.356 74.7466 44.5648 74.6302 44.8317C74.5139 45.0952 74.4557 45.3998 74.4557 45.7454V45.7556C74.4557 46.1013 74.5139 46.4058 74.6302 46.6693C74.7466 46.9328 74.9142 47.1398 75.1332 47.2904C75.3557 47.4376 75.6243 47.5111 75.9391 47.5111Z" fill="white"/>
<path d="M71.0729 48.7071V43.1327H72.1919V48.7071H71.0729ZM71.6375 42.1369C71.4459 42.1369 71.2817 42.0685 71.1448 41.9316C71.0079 41.7947 70.9395 41.6304 70.9395 41.4388C70.9395 41.2472 71.0079 41.0846 71.1448 40.9512C71.2817 40.8143 71.4459 40.7458 71.6375 40.7458C71.8292 40.7458 71.9934 40.8143 72.1303 40.9512C72.2672 41.0846 72.3356 41.2472 72.3356 41.4388C72.3356 41.6304 72.2672 41.7947 72.1303 41.9316C71.9934 42.0685 71.8292 42.1369 71.6375 42.1369Z" fill="white"/>
<path d="M64.3638 48.7071V41.3002H67.2844C67.7909 41.3002 68.2289 41.3943 68.5985 41.5825C68.9681 41.7673 69.2521 42.0291 69.4506 42.3678C69.6525 42.7032 69.7534 43.1001 69.7534 43.5587V43.569C69.7534 44.0686 69.6268 44.5083 69.3736 44.8881C69.1203 45.2646 68.7679 45.5298 68.3162 45.6838L69.9741 48.7071H68.6447L67.1356 45.8583C67.1253 45.8583 67.1151 45.8583 67.1048 45.8583C67.0945 45.8583 67.0843 45.8583 67.074 45.8583H65.5136V48.7071H64.3638ZM65.5136 44.9241H67.1715C67.613 44.9241 67.9552 44.8094 68.1981 44.5802C68.4411 44.3475 68.5626 44.0207 68.5626 43.5998V43.5895C68.5626 43.1788 68.4359 42.8555 68.1827 42.6194C67.9329 42.3832 67.5839 42.2652 67.1356 42.2652H65.5136V44.9241Z" fill="white"/>
<path d="M59.02 48.7071V40.946H60.1339V48.7071H59.02Z" fill="white"/>
<path d="M56.4072 48.7071V40.946H57.5211V48.7071H56.4072Z" fill="white"/>
<path d="M48.8152 48.7071L51.4895 41.3002H52.4186V42.5988H52.0695L50.0266 48.7071H48.8152ZM50.1036 46.7052L50.4269 45.7813H53.7993L54.1227 46.7052H50.1036ZM54.1946 48.7071L52.1568 42.5988V41.3002H52.7368L55.406 48.7071H54.1946Z" fill="white"/>
<path d="M187.342 35.7892C187.13 35.7892 186.95 35.7157 186.803 35.5685C186.659 35.4214 186.587 35.2451 186.587 35.0398C186.587 34.8277 186.659 34.6497 186.803 34.506C186.95 34.3623 187.13 34.2904 187.342 34.2904C187.558 34.2904 187.737 34.3623 187.881 34.506C188.025 34.6497 188.096 34.8277 188.096 35.0398C188.096 35.2451 188.025 35.4214 187.881 35.5685C187.737 35.7157 187.558 35.7892 187.342 35.7892Z" fill="white"/>
<path d="M180.258 37.5653V30.1327H181.372V31.0104H181.459C181.566 30.8051 181.702 30.6306 181.87 30.4869C182.041 30.3431 182.236 30.2319 182.455 30.1532C182.674 30.0745 182.914 30.0352 183.174 30.0352C183.643 30.0352 184.05 30.1549 184.395 30.3945C184.741 30.6306 185.008 30.9642 185.196 31.3954C185.388 31.8232 185.484 32.3296 185.484 32.9148V32.925C185.484 33.5136 185.39 34.0235 185.201 34.4547C185.013 34.8824 184.746 35.2144 184.401 35.4505C184.055 35.6832 183.646 35.7995 183.174 35.7995C182.917 35.7995 182.678 35.7602 182.455 35.6815C182.233 35.5993 182.036 35.4864 181.865 35.3427C181.694 35.199 181.559 35.0261 181.459 34.8242H181.372V37.5653H180.258ZM182.856 34.8448C183.167 34.8448 183.434 34.7678 183.656 34.6138C183.879 34.4598 184.048 34.2391 184.165 33.9516C184.284 33.6642 184.344 33.322 184.344 32.925V32.9148C184.344 32.5144 184.284 32.1705 184.165 31.883C184.048 31.5956 183.879 31.3749 183.656 31.2209C183.434 31.0669 183.167 30.9899 182.856 30.9899C182.548 30.9899 182.281 31.0686 182.055 31.226C181.829 31.38 181.656 31.6007 181.536 31.8882C181.417 32.1722 181.357 32.5144 181.357 32.9148V32.925C181.357 33.3186 181.417 33.6591 181.536 33.9465C181.656 34.2339 181.829 34.4564 182.055 34.6138C182.281 34.7678 182.548 34.8448 182.856 34.8448Z" fill="white"/>
<path d="M177.733 35.7071V30.1327H178.852V35.7071H177.733ZM178.297 29.1369C178.106 29.1369 177.941 29.0685 177.804 28.9316C177.668 28.7947 177.599 28.6304 177.599 28.4388C177.599 28.2472 177.668 28.0846 177.804 27.9512C177.941 27.8143 178.106 27.7458 178.297 27.7458C178.489 27.7458 178.653 27.8143 178.79 27.9512C178.927 28.0846 178.995 28.2472 178.995 28.4388C178.995 28.6304 178.927 28.7947 178.79 28.9316C178.653 29.0685 178.489 29.1369 178.297 29.1369Z" fill="white"/>
<path d="M171.624 35.7071V27.946H172.738V30.9745H172.825C172.962 30.6768 173.164 30.4441 173.431 30.2764C173.698 30.1087 174.035 30.0249 174.442 30.0249C174.856 30.0249 175.207 30.1053 175.494 30.2662C175.782 30.427 176.001 30.6631 176.151 30.9745C176.302 31.2825 176.377 31.6572 176.377 32.0986V35.7071H175.258V32.3604C175.258 31.895 175.161 31.5494 174.966 31.3236C174.774 31.0943 174.473 30.9796 174.062 30.9796C173.792 30.9796 173.557 31.0395 173.359 31.1593C173.161 31.2757 173.007 31.4433 172.897 31.6623C172.791 31.8779 172.738 32.1363 172.738 32.4374V35.7071H171.624Z" fill="white"/>
<path d="M168.144 35.8149C167.695 35.8149 167.305 35.7499 166.973 35.6199C166.641 35.4864 166.378 35.3033 166.183 35.0706C165.988 34.8345 165.873 34.5608 165.839 34.2494V34.2391H166.958V34.2494C167.03 34.4581 167.167 34.6275 167.369 34.7575C167.57 34.8876 167.837 34.9526 168.169 34.9526C168.399 34.9526 168.599 34.9201 168.77 34.8551C168.944 34.79 169.081 34.6994 169.18 34.583C169.28 34.4667 169.329 34.3332 169.329 34.1826V34.1724C169.329 33.9978 169.259 33.8507 169.119 33.7309C168.979 33.6112 168.748 33.5136 168.426 33.4383L167.533 33.233C167.184 33.1543 166.895 33.0465 166.665 32.9096C166.436 32.7728 166.267 32.6051 166.157 32.4066C166.048 32.2047 165.993 31.9686 165.993 31.6983V31.6931C165.993 31.368 166.085 31.0806 166.27 30.8308C166.455 30.5776 166.71 30.3808 167.035 30.2405C167.363 30.0968 167.738 30.0249 168.159 30.0249C168.583 30.0249 168.953 30.0916 169.268 30.2251C169.586 30.3551 169.837 30.5365 170.022 30.7692C170.207 30.9985 170.317 31.2654 170.351 31.5699V31.5751H169.283V31.5648C169.232 31.3697 169.109 31.2072 168.914 31.0772C168.722 30.9471 168.469 30.8821 168.154 30.8821C167.952 30.8821 167.772 30.9146 167.615 30.9796C167.457 31.0412 167.333 31.1285 167.24 31.2414C167.151 31.3509 167.107 31.481 167.107 31.6315V31.6418C167.107 31.7581 167.136 31.8608 167.194 31.9498C167.256 32.0353 167.351 32.1123 167.481 32.1808C167.611 32.2458 167.779 32.304 167.984 32.3553L168.872 32.5555C169.406 32.6821 169.803 32.8652 170.063 33.1047C170.327 33.3442 170.459 33.6659 170.459 34.0697V34.08C170.459 34.4222 170.358 34.725 170.156 34.9885C169.954 35.2486 169.678 35.4522 169.329 35.5993C168.984 35.7431 168.588 35.8149 168.144 35.8149Z" fill="white"/>
<path d="M162.22 35.7071V30.1327H163.334V30.9745H163.421C163.52 30.6768 163.695 30.4458 163.945 30.2815C164.198 30.1173 164.509 30.0352 164.879 30.0352C164.971 30.0352 165.062 30.0403 165.151 30.0506C165.24 30.0608 165.312 30.0728 165.367 30.0865V31.1131C165.267 31.0926 165.168 31.0772 165.069 31.0669C164.973 31.0566 164.872 31.0515 164.766 31.0515C164.482 31.0515 164.232 31.1062 164.017 31.2157C163.804 31.3252 163.637 31.4792 163.513 31.6777C163.394 31.8728 163.334 32.1055 163.334 32.3758V35.7071H162.22Z" fill="white"/>
<path d="M158.652 35.8149C158.108 35.8149 157.641 35.6986 157.251 35.4659C156.861 35.2298 156.56 34.8961 156.348 34.4649C156.139 34.0338 156.034 33.5239 156.034 32.9353V32.9302C156.034 32.3484 156.139 31.8403 156.348 31.4057C156.56 30.9711 156.857 30.6323 157.241 30.3893C157.627 30.1464 158.079 30.0249 158.596 30.0249C159.116 30.0249 159.563 30.1413 159.936 30.3739C160.312 30.6066 160.601 30.9334 160.803 31.3543C161.005 31.7718 161.106 32.2612 161.106 32.8224V33.2125H156.599V32.4169H160.551L160.018 33.156V32.7095C160.018 32.3125 159.956 31.984 159.833 31.7239C159.713 31.4604 159.547 31.2637 159.335 31.1336C159.123 31.0036 158.878 30.9386 158.601 30.9386C158.324 30.9386 158.076 31.007 157.857 31.1439C157.641 31.2774 157.47 31.4758 157.343 31.7393C157.22 32.0028 157.159 32.3262 157.159 32.7095V33.156C157.159 33.5222 157.22 33.8353 157.343 34.0954C157.467 34.3554 157.641 34.5539 157.867 34.6908C158.096 34.8277 158.367 34.8961 158.678 34.8961C158.917 34.8961 159.123 34.8636 159.294 34.7986C159.468 34.7302 159.61 34.6463 159.72 34.5471C159.833 34.4478 159.91 34.3503 159.951 34.2545L159.971 34.2134H161.049L161.039 34.2596C160.991 34.4444 160.907 34.6292 160.788 34.814C160.668 34.9954 160.509 35.1613 160.31 35.3119C160.115 35.4625 159.879 35.5839 159.602 35.6763C159.328 35.7687 159.012 35.8149 158.652 35.8149Z" fill="white"/>
<path d="M152.888 35.7995C152.628 35.7995 152.388 35.7619 152.169 35.6866C151.95 35.6079 151.755 35.4967 151.584 35.353C151.416 35.2058 151.279 35.0313 151.173 34.8294H151.086V35.7071H149.972V27.946H151.086V31.0156H151.173C151.273 30.8137 151.408 30.6409 151.579 30.4971C151.75 30.35 151.947 30.2371 152.169 30.1584C152.392 30.0762 152.631 30.0352 152.888 30.0352C153.36 30.0352 153.769 30.1532 154.115 30.3894C154.46 30.622 154.727 30.954 154.915 31.3852C155.103 31.8163 155.198 32.3262 155.198 32.9148V32.9251C155.198 33.5102 155.102 34.0184 154.91 34.4496C154.722 34.8807 154.455 35.2144 154.109 35.4505C153.764 35.6832 153.357 35.7995 152.888 35.7995ZM152.569 34.8448C152.881 34.8448 153.148 34.7678 153.37 34.6138C153.593 34.4598 153.762 34.2391 153.878 33.9517C153.998 33.6642 154.058 33.322 154.058 32.9251V32.9148C154.058 32.5144 153.998 32.1722 153.878 31.8882C153.762 31.6007 153.593 31.38 153.37 31.226C153.148 31.0686 152.881 30.9899 152.569 30.9899C152.261 30.9899 151.995 31.0686 151.769 31.226C151.543 31.38 151.37 31.6007 151.25 31.8882C151.131 32.1756 151.071 32.5178 151.071 32.9148V32.9251C151.071 33.3186 151.131 33.6608 151.25 33.9517C151.37 34.2391 151.543 34.4598 151.769 34.6138C151.995 34.7678 152.261 34.8448 152.569 34.8448Z" fill="white"/>
<path d="M140.738 35.7071V30.1327H141.852V30.9899H141.939C142.062 30.6819 142.254 30.4441 142.514 30.2764C142.777 30.1087 143.092 30.0249 143.458 30.0249C143.712 30.0249 143.939 30.066 144.141 30.1481C144.343 30.2302 144.516 30.3466 144.659 30.4971C144.807 30.6443 144.921 30.8188 145.003 31.0207H145.091C145.183 30.8188 145.313 30.6443 145.481 30.4971C145.648 30.3466 145.843 30.2302 146.066 30.1481C146.292 30.066 146.531 30.0249 146.784 30.0249C147.161 30.0249 147.483 30.0985 147.749 30.2456C148.016 30.3893 148.22 30.5981 148.36 30.8718C148.501 31.1456 148.571 31.4758 148.571 31.8625V35.7071H147.457V32.1294C147.457 31.8728 147.418 31.6606 147.339 31.4929C147.26 31.3218 147.14 31.1935 146.98 31.108C146.822 31.0224 146.624 30.9796 146.384 30.9796C146.148 30.9796 145.941 31.0344 145.763 31.1439C145.588 31.25 145.452 31.3937 145.352 31.5751C145.257 31.753 145.209 31.9549 145.209 32.1808V35.7071H144.095V32.0165C144.095 31.8043 144.05 31.6213 143.961 31.4673C143.876 31.3099 143.753 31.1901 143.592 31.108C143.431 31.0224 143.241 30.9796 143.022 30.9796C142.8 30.9796 142.599 31.0378 142.421 31.1542C142.247 31.2705 142.108 31.4279 142.006 31.6264C141.903 31.8215 141.852 32.0405 141.852 32.2834V35.7071H140.738Z" fill="white"/>
<path d="M137.17 35.8149C136.626 35.8149 136.159 35.6986 135.769 35.4659C135.379 35.2298 135.078 34.8961 134.865 34.4649C134.657 34.0338 134.552 33.5239 134.552 32.9353V32.9302C134.552 32.3484 134.657 31.8403 134.865 31.4057C135.078 30.9711 135.375 30.6323 135.759 30.3893C136.145 30.1464 136.597 30.0249 137.114 30.0249C137.634 30.0249 138.08 30.1413 138.453 30.3739C138.83 30.6066 139.119 30.9334 139.321 31.3543C139.523 31.7718 139.624 32.2612 139.624 32.8224V33.2125H135.117V32.4169H139.069L138.535 33.156V32.7095C138.535 32.3125 138.474 31.984 138.351 31.7239C138.231 31.4604 138.065 31.2637 137.853 31.1336C137.641 31.0036 137.396 30.9386 137.119 30.9386C136.842 30.9386 136.593 31.007 136.374 31.1439C136.159 31.2774 135.988 31.4758 135.861 31.7393C135.738 32.0028 135.676 32.3262 135.676 32.7095V33.156C135.676 33.5222 135.738 33.8353 135.861 34.0954C135.984 34.3554 136.159 34.5539 136.385 34.6908C136.614 34.8277 136.884 34.8961 137.196 34.8961C137.435 34.8961 137.641 34.8636 137.812 34.7986C137.986 34.7302 138.128 34.6463 138.238 34.5471C138.351 34.4478 138.428 34.3503 138.469 34.2545L138.489 34.2134H139.567L139.557 34.2596C139.509 34.4444 139.425 34.6292 139.305 34.814C139.186 34.9954 139.027 35.1613 138.828 35.3119C138.633 35.4625 138.397 35.5839 138.12 35.6763C137.846 35.7687 137.529 35.8149 137.17 35.8149Z" fill="white"/>
<path d="M125.857 35.7071V28.3002H127.186L129.542 34.2031H129.629L131.985 28.3002H133.315V35.7071H132.263V30.2764H131.693L132.894 28.5055L130.009 35.7071H129.157L126.278 28.5055L127.474 30.2764H126.909V35.7071H125.857Z" fill="white"/>
<path d="M116.981 35.7071V30.1327H118.095V30.9745H118.183C118.319 30.6768 118.521 30.4441 118.788 30.2764C119.055 30.1087 119.392 30.0249 119.799 30.0249C120.426 30.0249 120.905 30.2046 121.237 30.5639C121.569 30.9232 121.735 31.4348 121.735 32.0986V35.7071H120.616V32.3604C120.616 31.895 120.518 31.5494 120.323 31.3236C120.131 31.0943 119.83 30.9796 119.42 30.9796C119.149 30.9796 118.915 31.0395 118.716 31.1593C118.518 31.2756 118.364 31.4433 118.254 31.6623C118.148 31.8779 118.095 32.1363 118.095 32.4374V35.7071H116.981Z" fill="white"/>
<path d="M112.998 37.6731C112.526 37.6731 112.115 37.608 111.766 37.478C111.42 37.348 111.147 37.1666 110.945 36.9339C110.743 36.7012 110.62 36.4309 110.575 36.1229L110.58 36.1126H111.71L111.715 36.1229C111.763 36.3145 111.898 36.4719 112.12 36.5951C112.343 36.7183 112.64 36.7799 113.013 36.7799C113.472 36.7799 113.83 36.6755 114.086 36.4668C114.346 36.2581 114.476 35.9655 114.476 35.5891V34.4957H114.389C114.28 34.6942 114.139 34.8653 113.968 35.009C113.797 35.1493 113.602 35.2554 113.383 35.3273C113.164 35.3991 112.926 35.4351 112.669 35.4351C112.197 35.4351 111.787 35.3221 111.438 35.0963C111.092 34.867 110.825 34.5522 110.637 34.1518C110.452 33.748 110.36 33.2843 110.36 32.7608V32.7505C110.36 32.2201 110.454 31.7513 110.642 31.3441C110.83 30.9334 111.099 30.6135 111.448 30.3842C111.797 30.1515 112.213 30.0352 112.695 30.0352C112.955 30.0352 113.193 30.0762 113.409 30.1583C113.628 30.2405 113.821 30.3568 113.989 30.5074C114.156 30.658 114.295 30.8376 114.404 31.0464H114.471V30.1327H115.585V35.5942C115.585 36.0151 115.479 36.3813 115.267 36.6927C115.058 37.0041 114.76 37.2453 114.374 37.4164C113.987 37.5875 113.528 37.6731 112.998 37.6731ZM112.983 34.5111C113.297 34.5111 113.568 34.4376 113.794 34.2904C114.019 34.1398 114.192 33.9328 114.312 33.6693C114.435 33.4058 114.497 33.1013 114.497 32.7556V32.7454C114.497 32.4032 114.435 32.0986 114.312 31.8317C114.192 31.5648 114.019 31.356 113.794 31.2055C113.568 31.0549 113.297 30.9796 112.983 30.9796C112.668 30.9796 112.399 31.0549 112.177 31.2055C111.958 31.356 111.79 31.5648 111.674 31.8317C111.557 32.0952 111.499 32.3998 111.499 32.7454V32.7556C111.499 33.1013 111.557 33.4058 111.674 33.6693C111.79 33.9328 111.958 34.1398 112.177 34.2904C112.399 34.4376 112.668 34.5111 112.983 34.5111Z" fill="white"/>
<path d="M108.116 35.7071V30.1327H109.235V35.7071H108.116ZM108.681 29.1369C108.489 29.1369 108.325 29.0685 108.188 28.9316C108.051 28.7947 107.983 28.6304 107.983 28.4388C107.983 28.2472 108.051 28.0846 108.188 27.9512C108.325 27.8143 108.489 27.7458 108.681 27.7458C108.873 27.7458 109.037 27.8143 109.174 27.9512C109.311 28.0846 109.379 28.2472 109.379 28.4388C109.379 28.6304 109.311 28.7947 109.174 28.9316C109.037 29.0685 108.873 29.1369 108.681 29.1369Z" fill="white"/>
<path d="M104.672 35.8149C104.224 35.8149 103.834 35.7499 103.502 35.6199C103.17 35.4864 102.906 35.3033 102.711 35.0706C102.516 34.8345 102.401 34.5608 102.367 34.2494V34.2391H103.486V34.2494C103.558 34.4581 103.695 34.6275 103.897 34.7575C104.099 34.8876 104.366 34.9526 104.698 34.9526C104.927 34.9526 105.127 34.9201 105.298 34.8551C105.473 34.79 105.61 34.6994 105.709 34.583C105.808 34.4667 105.858 34.3332 105.858 34.1826V34.1724C105.858 33.9978 105.787 33.8507 105.647 33.7309C105.507 33.6112 105.276 33.5136 104.954 33.4383L104.061 33.233C103.712 33.1543 103.423 33.0465 103.194 32.9096C102.964 32.7728 102.795 32.6051 102.685 32.4066C102.576 32.2047 102.521 31.9686 102.521 31.6983V31.6931C102.521 31.368 102.614 31.0806 102.798 30.8308C102.983 30.5776 103.238 30.3808 103.563 30.2405C103.892 30.0968 104.266 30.0249 104.687 30.0249C105.112 30.0249 105.481 30.0916 105.796 30.2251C106.114 30.3551 106.366 30.5365 106.551 30.7692C106.735 30.9985 106.845 31.2654 106.879 31.5699V31.5751H105.811V31.5648C105.76 31.3697 105.637 31.2072 105.442 31.0772C105.25 30.9471 104.997 30.8821 104.682 30.8821C104.48 30.8821 104.301 30.9146 104.143 30.9796C103.986 31.0412 103.861 31.1285 103.768 31.2414C103.68 31.3509 103.635 31.481 103.635 31.6315V31.6418C103.635 31.7581 103.664 31.8608 103.722 31.9498C103.784 32.0353 103.88 32.1123 104.01 32.1808C104.14 32.2458 104.307 32.304 104.513 32.3553L105.401 32.5555C105.935 32.6821 106.332 32.8652 106.592 33.1047C106.855 33.3442 106.987 33.6659 106.987 34.0697V34.08C106.987 34.4222 106.886 34.725 106.684 34.9885C106.482 35.2486 106.207 35.4522 105.858 35.5993C105.512 35.7431 105.117 35.8149 104.672 35.8149Z" fill="white"/>
<path d="M99.0768 35.8149C98.5327 35.8149 98.0656 35.6986 97.6755 35.4659C97.2854 35.2298 96.9843 34.8961 96.7721 34.4649C96.5634 34.0338 96.459 33.5239 96.459 32.9353V32.9302C96.459 32.3484 96.5634 31.8403 96.7721 31.4057C96.9843 30.9711 97.282 30.6323 97.6652 30.3893C98.0519 30.1464 98.5036 30.0249 99.0203 30.0249C99.5405 30.0249 99.9871 30.1413 100.36 30.3739C100.736 30.6066 101.026 30.9334 101.228 31.3543C101.429 31.7718 101.53 32.2612 101.53 32.8224V33.2125H97.0236V32.4169H100.976L100.442 33.156V32.7095C100.442 32.3125 100.381 31.984 100.257 31.7239C100.138 31.4604 99.9717 31.2637 99.7595 31.1336C99.5473 31.0036 99.3027 30.9386 99.0255 30.9386C98.7483 30.9386 98.5002 31.007 98.2812 31.1439C98.0656 31.2774 97.8945 31.4758 97.7679 31.7393C97.6447 32.0028 97.5831 32.3262 97.5831 32.7095V33.156C97.5831 33.5222 97.6447 33.8353 97.7679 34.0954C97.8911 34.3554 98.0656 34.5539 98.2915 34.6908C98.5207 34.8277 98.7911 34.8961 99.1025 34.8961C99.342 34.8961 99.5473 34.8636 99.7184 34.7986C99.893 34.7302 100.035 34.6463 100.144 34.5471C100.257 34.4478 100.334 34.3503 100.375 34.2545L100.396 34.2134H101.474L101.464 34.2596C101.416 34.4444 101.332 34.6292 101.212 34.814C101.092 34.9954 100.933 35.1613 100.735 35.3119C100.54 35.4625 100.304 35.5839 100.026 35.6763C99.7527 35.7687 99.4361 35.8149 99.0768 35.8149Z" fill="white"/>
<path d="M89.3545 35.7071V28.3002H92.0288C92.7645 28.3002 93.3925 28.4456 93.9126 28.7365C94.4327 29.0273 94.8297 29.4465 95.1035 29.9941C95.3806 30.5416 95.5192 31.2037 95.5192 31.9805V31.9908C95.5192 32.7744 95.3806 33.4434 95.1035 33.9978C94.8297 34.5522 94.4327 34.9765 93.9126 35.2708C93.3959 35.5617 92.7679 35.7071 92.0288 35.7071H89.3545ZM90.5043 34.7113H91.9005C92.4172 34.7113 92.8569 34.6052 93.2196 34.393C93.5858 34.1809 93.863 33.8729 94.0512 33.4691C94.2428 33.0653 94.3386 32.5777 94.3386 32.0062V31.9959C94.3386 31.4279 94.2411 30.942 94.0461 30.5382C93.8544 30.1344 93.5772 29.8264 93.2145 29.6142C92.8518 29.4021 92.4138 29.296 91.9005 29.296H90.5043V34.7113Z" fill="white"/>
<path d="M82.5888 37.6731C82.1166 37.6731 81.7059 37.608 81.3569 37.478C81.0113 37.348 80.7375 37.1666 80.5356 36.9339C80.3337 36.7012 80.2105 36.4309 80.166 36.1229L80.1712 36.1126H81.3004L81.3055 36.1229C81.3535 36.3145 81.4886 36.4719 81.7111 36.5951C81.9335 36.7183 82.2312 36.7799 82.6042 36.7799C83.0628 36.7799 83.4203 36.6755 83.677 36.4668C83.9371 36.2581 84.0671 35.9655 84.0671 35.5891V34.4957H83.9798C83.8703 34.6942 83.73 34.8653 83.5589 35.009C83.3878 35.1493 83.1928 35.2554 82.9738 35.3273C82.7548 35.3991 82.5169 35.4351 82.2603 35.4351C81.7881 35.4351 81.3774 35.3221 81.0284 35.0963C80.6827 34.867 80.4158 34.5522 80.2276 34.1518C80.0428 33.748 79.9504 33.2843 79.9504 32.7608V32.7505C79.9504 32.2201 80.0445 31.7513 80.2328 31.3441C80.421 30.9334 80.6896 30.6135 81.0386 30.3842C81.3877 30.1515 81.8035 30.0352 82.286 30.0352C82.546 30.0352 82.7839 30.0762 82.9994 30.1583C83.2185 30.2405 83.4118 30.3568 83.5795 30.5074C83.7471 30.658 83.8857 30.8376 83.9952 31.0464H84.062V30.1327H85.1758V35.5942C85.1758 36.0151 85.0698 36.3813 84.8576 36.6927C84.6488 37.0041 84.3511 37.2453 83.9644 37.4164C83.5778 37.5875 83.1192 37.6731 82.5888 37.6731ZM82.5734 34.5111C82.8882 34.5111 83.1586 34.4376 83.3844 34.2904C83.6103 34.1398 83.7831 33.9328 83.9028 33.6693C84.026 33.4058 84.0876 33.1013 84.0876 32.7556V32.7454C84.0876 32.4032 84.026 32.0986 83.9028 31.8317C83.7831 31.5648 83.6103 31.356 83.3844 31.2055C83.1586 31.0549 82.8882 30.9796 82.5734 30.9796C82.2586 30.9796 81.99 31.0549 81.7675 31.2055C81.5485 31.356 81.3808 31.5648 81.2645 31.8317C81.1481 32.0952 81.09 32.3998 81.09 32.7454V32.7556C81.09 33.1013 81.1481 33.4058 81.2645 33.6693C81.3808 33.9328 81.5485 34.1398 81.7675 34.2904C81.99 34.4376 82.2586 34.5111 82.5734 34.5111Z" fill="white"/>
<path d="M74.1399 35.7071V30.1327H75.2538V30.9745H75.341C75.4779 30.6768 75.6798 30.4441 75.9467 30.2764C76.2136 30.1087 76.5507 30.0249 76.9579 30.0249C77.5841 30.0249 78.0632 30.2046 78.3951 30.5639C78.7271 30.9232 78.8931 31.4348 78.8931 32.0986V35.7071H77.7741V32.3604C77.7741 31.895 77.6765 31.5494 77.4815 31.3236C77.2898 31.0943 76.9887 30.9796 76.5781 30.9796C76.3077 30.9796 76.0733 31.0395 75.8748 31.1593C75.6764 31.2756 75.5224 31.4433 75.4129 31.6623C75.3068 31.8779 75.2538 32.1363 75.2538 32.4374V35.7071H74.1399Z" fill="white"/>
<path d="M69.9048 35.8149C69.4874 35.8149 69.1349 35.7345 68.8474 35.5737C68.5634 35.4094 68.3495 35.1733 68.2058 34.8653C68.0655 34.5539 67.9954 34.1792 67.9954 33.7412V30.1327H69.1092V33.4794C69.1092 33.938 69.1999 34.2819 69.3813 34.5111C69.5626 34.7404 69.8586 34.8551 70.2693 34.8551C70.4883 34.8551 70.6833 34.8225 70.8544 34.7575C71.0255 34.6891 71.1693 34.5916 71.2856 34.4649C71.402 34.3383 71.4875 34.186 71.5423 34.0081C71.6004 33.8302 71.6295 33.6283 71.6295 33.4024V30.1327H72.7485V35.7071H71.6295V34.8653H71.5474C71.4584 35.0638 71.3369 35.2349 71.183 35.3786C71.029 35.5189 70.8442 35.6267 70.6286 35.702C70.4164 35.7773 70.1752 35.8149 69.9048 35.8149Z" fill="white"/>
<path d="M64.6177 35.8149C64.1694 35.8149 63.7793 35.7499 63.4474 35.6199C63.1154 35.4864 62.852 35.3033 62.6569 35.0706C62.4618 34.8345 62.3472 34.5608 62.313 34.2494V34.2391H63.432V34.2494C63.5038 34.4581 63.6407 34.6275 63.8426 34.7575C64.0445 34.8876 64.3114 34.9526 64.6434 34.9526C64.8726 34.9526 65.0728 34.9201 65.2439 34.8551C65.4184 34.79 65.5553 34.6994 65.6546 34.583C65.7538 34.4667 65.8034 34.3332 65.8034 34.1826V34.1724C65.8034 33.9978 65.7333 33.8507 65.593 33.7309C65.4527 33.6112 65.2217 33.5136 64.9 33.4383L64.0069 33.233C63.6578 33.1543 63.3687 33.0465 63.1394 32.9096C62.9101 32.7728 62.7407 32.6051 62.6312 32.4066C62.5217 32.2047 62.467 31.9686 62.467 31.6983V31.6931C62.467 31.368 62.5594 31.0806 62.7442 30.8308C62.9289 30.5776 63.1839 30.3808 63.509 30.2405C63.8375 30.0968 64.2122 30.0249 64.6331 30.0249C65.0574 30.0249 65.427 30.0916 65.7418 30.2251C66.0601 30.3551 66.3116 30.5365 66.4964 30.7692C66.6812 30.9985 66.7907 31.2654 66.8249 31.5699V31.5751H65.7572V31.5648C65.7059 31.3697 65.5827 31.2072 65.3877 31.0772C65.196 30.9471 64.9428 30.8821 64.628 30.8821C64.4261 30.8821 64.2464 30.9146 64.089 30.9796C63.9316 31.0412 63.8067 31.1285 63.7143 31.2414C63.6253 31.3509 63.5808 31.481 63.5808 31.6315V31.6418C63.5808 31.7581 63.6099 31.8608 63.6681 31.9498C63.7297 32.0353 63.8255 32.1123 63.9555 32.1808C64.0856 32.2458 64.2533 32.304 64.4586 32.3553L65.3466 32.5555C65.8804 32.6821 66.2774 32.8652 66.5374 33.1047C66.8009 33.3442 66.9327 33.6659 66.9327 34.0697V34.08C66.9327 34.4222 66.8317 34.725 66.6298 34.9885C66.4279 35.2486 66.1525 35.4522 65.8034 35.5993C65.4578 35.7431 65.0626 35.8149 64.6177 35.8149Z" fill="white"/>
<path d="M53.407 35.7071V30.1327H54.5208V30.9899H54.6081C54.7313 30.6819 54.9229 30.4441 55.183 30.2764C55.4465 30.1087 55.7613 30.0249 56.1275 30.0249C56.3807 30.0249 56.6083 30.066 56.8102 30.1481C57.0121 30.2302 57.1849 30.3466 57.3286 30.4971C57.4757 30.6443 57.5904 30.8188 57.6725 31.0207H57.7598C57.8522 30.8188 57.9822 30.6443 58.1499 30.4971C58.3176 30.3466 58.5126 30.2302 58.735 30.1481C58.9609 30.066 59.2004 30.0249 59.4537 30.0249C59.8301 30.0249 60.1517 30.0985 60.4187 30.2456C60.6856 30.3893 60.8892 30.5981 61.0295 30.8718C61.1698 31.1456 61.2399 31.4758 61.2399 31.8625V35.7071H60.1261V32.1294C60.1261 31.8728 60.0867 31.6606 60.008 31.4929C59.9293 31.3218 59.8095 31.1935 59.6487 31.108C59.4913 31.0224 59.2928 30.9796 59.0533 30.9796C58.8172 30.9796 58.6101 31.0344 58.4322 31.1439C58.2577 31.25 58.1208 31.3937 58.0215 31.5751C57.9257 31.753 57.8778 31.9549 57.8778 32.1808V35.7071H56.764V32.0165C56.764 31.8043 56.7195 31.6213 56.6305 31.4673C56.545 31.3099 56.4218 31.1901 56.2609 31.108C56.1001 31.0224 55.9102 30.9796 55.6912 30.9796C55.4687 30.9796 55.2686 31.0378 55.0906 31.1542C54.9161 31.2705 54.7775 31.4279 54.6748 31.6264C54.5722 31.8215 54.5208 32.0405 54.5208 32.2834V35.7071H53.407Z" fill="white"/>
<path d="M49.2029 35.7995C48.8504 35.7995 48.5339 35.7328 48.2533 35.5993C47.9761 35.4625 47.7571 35.2691 47.5962 35.0193C47.4354 34.7695 47.355 34.4769 47.355 34.1416V34.1313C47.355 33.7959 47.4354 33.5102 47.5962 33.2741C47.7605 33.038 47.9966 32.8532 48.3046 32.7197C48.616 32.5828 48.9924 32.5007 49.4338 32.4733L51.4922 32.3502V33.1355L49.5878 33.2587C49.2046 33.2826 48.9223 33.3648 48.7409 33.5051C48.5595 33.642 48.4688 33.8353 48.4688 34.0851V34.0954C48.4688 34.3486 48.5664 34.5488 48.7614 34.6959C48.9565 34.8397 49.2029 34.9115 49.5006 34.9115C49.7778 34.9115 50.0241 34.8568 50.2397 34.7473C50.4587 34.6343 50.6298 34.4838 50.753 34.2956C50.8762 34.1039 50.9378 33.8883 50.9378 33.6488V31.8933C50.9378 31.5853 50.842 31.3509 50.6504 31.1901C50.4622 31.0258 50.1816 30.9437 49.8086 30.9437C49.4972 30.9437 49.2422 30.9985 49.0437 31.108C48.8487 31.2175 48.7186 31.3715 48.6536 31.5699L48.6434 31.5853H47.5706L47.5757 31.5494C47.6202 31.2414 47.7417 30.9745 47.9401 30.7487C48.142 30.5194 48.4055 30.3414 48.7306 30.2148C49.0591 30.0882 49.4338 30.0249 49.8548 30.0249C50.3236 30.0249 50.7205 30.1002 51.0456 30.2508C51.3741 30.3979 51.6222 30.6118 51.7899 30.8924C51.961 31.1696 52.0465 31.5032 52.0465 31.8933V35.7071H50.9378V34.9167H50.8557C50.7462 35.1049 50.6093 35.2657 50.445 35.3992C50.2808 35.5292 50.0943 35.6284 49.8855 35.6969C49.6768 35.7653 49.4492 35.7995 49.2029 35.7995Z" fill="white"/>
<path d="M43.7001 35.8868C43.1424 35.8868 42.6564 35.7996 42.2424 35.6251C41.8283 35.4471 41.5015 35.2007 41.262 34.8859C41.0224 34.5711 40.8855 34.2066 40.8513 33.7926L40.8462 33.7258H41.9806L41.9857 33.7823C42.0097 34.0047 42.0969 34.1981 42.2475 34.3623C42.4015 34.5266 42.6068 34.6549 42.8635 34.7473C43.1235 34.8397 43.4195 34.8859 43.7515 34.8859C44.0629 34.8859 44.3401 34.8363 44.583 34.737C44.826 34.6378 45.0159 34.5009 45.1528 34.3264C45.2931 34.1519 45.3632 33.9517 45.3632 33.7258V33.7207C45.3632 33.4367 45.2554 33.2006 45.0399 33.0124C44.8243 32.8241 44.4718 32.677 43.9825 32.5709L43.1714 32.4015C42.422 32.2407 41.8762 31.9858 41.534 31.6367C41.1918 31.2842 41.0207 30.8343 41.0207 30.2867V30.2816C41.0241 29.8538 41.1388 29.4774 41.3646 29.1523C41.5939 28.8272 41.9104 28.574 42.3142 28.3927C42.718 28.2113 43.1817 28.1206 43.7053 28.1206C44.2288 28.1206 44.6857 28.2113 45.0758 28.3927C45.4693 28.5706 45.779 28.8136 46.0049 29.1215C46.2341 29.4295 46.3625 29.7769 46.3898 30.1635L46.395 30.2303H45.2708L45.2606 30.1635C45.2298 29.9616 45.1459 29.782 45.0091 29.6246C44.8756 29.4672 44.6959 29.344 44.4701 29.255C44.2477 29.1626 43.9876 29.1181 43.6899 29.1215C43.4024 29.1215 43.1458 29.166 42.9199 29.255C42.6941 29.3405 42.5144 29.4655 42.381 29.6297C42.2509 29.794 42.1859 29.9924 42.1859 30.2251V30.2303C42.1859 30.504 42.2903 30.7333 42.499 30.9181C42.7112 31.0995 43.0551 31.2415 43.5308 31.3441L44.3418 31.5238C44.8585 31.6333 45.2777 31.7787 45.5993 31.9601C45.921 32.1415 46.1554 32.3656 46.3026 32.6325C46.4531 32.896 46.5284 33.2108 46.5284 33.577V33.5821C46.5284 34.0544 46.4121 34.4633 46.1794 34.8089C45.9501 35.1511 45.6233 35.4163 45.199 35.6045C44.7746 35.7927 44.275 35.8868 43.7001 35.8868Z" fill="white"/>
<path d="M34.4807 35.8868C34.1077 35.8868 33.7484 35.8184 33.4028 35.6815C33.0606 35.5412 32.7526 35.3222 32.4788 35.0245C32.2085 34.7234 31.9929 34.3332 31.8321 33.8542C31.6747 33.3751 31.5959 32.7951 31.5959 32.1141V32.1038C31.5959 31.2688 31.7123 30.5554 31.945 29.9634C32.1777 29.3679 32.513 28.9128 32.9511 28.598C33.3891 28.2797 33.9126 28.1206 34.5218 28.1206C34.9598 28.1206 35.355 28.201 35.7075 28.3619C36.0599 28.5227 36.3525 28.7451 36.5852 29.0291C36.8179 29.3098 36.9736 29.6366 37.0523 30.0095L37.0677 30.0711H35.9231L35.9025 30.0198C35.8341 29.8282 35.7349 29.6656 35.6048 29.5322C35.4782 29.3953 35.3225 29.2892 35.1377 29.2139C34.9564 29.1352 34.7493 29.0959 34.5166 29.0959C34.1026 29.0959 33.7638 29.2191 33.5003 29.4655C33.2402 29.7084 33.0469 30.0335 32.9203 30.4407C32.7936 30.8479 32.7201 31.2962 32.6995 31.7856C32.6961 31.8335 32.6944 31.8814 32.6944 31.9293C32.6944 31.9772 32.6944 32.0251 32.6944 32.073L32.9151 33.3101C32.9151 33.6112 32.9836 33.8833 33.1204 34.1262C33.2607 34.3692 33.449 34.5625 33.6851 34.7062C33.9212 34.85 34.183 34.9218 34.4704 34.9218C34.7613 34.9218 35.0231 34.8517 35.2558 34.7114C35.4919 34.5711 35.6784 34.3812 35.8153 34.1416C35.9556 33.9021 36.0257 33.6352 36.0257 33.3409V33.3306C36.0257 33.026 35.959 32.7574 35.8255 32.5247C35.6955 32.2886 35.5141 32.1038 35.2814 31.9704C35.0487 31.8335 34.7835 31.765 34.4858 31.765C34.1915 31.765 33.9246 31.8318 33.6851 31.9652C33.449 32.0987 33.2607 32.2818 33.1204 32.5145C32.9836 32.7437 32.9151 33.0072 32.9151 33.3049V33.3101H32.6123V31.9601H32.7919C32.8843 31.7616 33.0178 31.5768 33.1923 31.4057C33.3703 31.2346 33.5893 31.0977 33.8493 30.9951C34.1094 30.889 34.4071 30.836 34.7425 30.836C35.2147 30.836 35.6322 30.9438 35.9949 31.1593C36.3611 31.3715 36.6468 31.6624 36.8521 32.032C37.0609 32.4015 37.1653 32.8241 37.1653 33.2998V33.3101C37.1653 33.8063 37.0489 34.2494 36.8162 34.6395C36.5869 35.0262 36.2704 35.3308 35.8666 35.5532C35.4628 35.7756 35.0008 35.8868 34.4807 35.8868Z" fill="white"/>
<path d="M25.4517 35.7072V34.9218L27.9156 32.3451C28.2441 32.0029 28.499 31.7223 28.6804 31.5033C28.8618 31.2808 28.9884 31.0823 29.0602 30.9078C29.1355 30.7333 29.1732 30.5451 29.1732 30.3432V30.3329C29.1732 30.09 29.1201 29.8744 29.014 29.6862C28.9114 29.4945 28.7625 29.3457 28.5675 29.2396C28.3724 29.1301 28.1397 29.0753 27.8694 29.0753C27.5956 29.0753 27.3544 29.1318 27.1456 29.2447C26.9369 29.3577 26.7743 29.5151 26.658 29.717C26.5416 29.9189 26.4835 30.155 26.4835 30.4253V30.4459L25.3953 30.4407L25.3901 30.4305C25.3936 29.9788 25.5031 29.5801 25.7186 29.2345C25.9342 28.8854 26.2337 28.6134 26.6169 28.4183C27.0002 28.2198 27.4399 28.1206 27.9361 28.1206C28.3947 28.1206 28.8036 28.2113 29.1629 28.3927C29.5256 28.5706 29.8114 28.8187 30.0201 29.1369C30.2288 29.4518 30.3332 29.8128 30.3332 30.22V30.2354C30.3332 30.516 30.2819 30.7881 30.1792 31.0515C30.0766 31.315 29.8986 31.6042 29.6454 31.919C29.3956 32.2338 29.0465 32.6137 28.5983 33.0586L26.7299 34.9218L27.0276 34.4034V34.9218L26.735 34.7216H30.4513V35.7072H25.4517Z" fill="white"/>
<path d="M21.4427 35.8868C20.8712 35.8868 20.3819 35.7294 19.9746 35.4146C19.5674 35.0998 19.2543 34.6532 19.0353 34.0749C18.8163 33.4931 18.7068 32.8036 18.7068 32.0063V31.996C18.7068 31.1987 18.8163 30.5109 19.0353 29.9326C19.2543 29.3542 19.5674 28.9077 19.9746 28.5928C20.3819 28.278 20.8712 28.1206 21.4427 28.1206C22.0142 28.1206 22.5035 28.278 22.9107 28.5928C23.3179 28.9077 23.631 29.3542 23.8501 29.9326C24.0725 30.5109 24.1837 31.1987 24.1837 31.996V32.0063C24.1837 32.8036 24.0725 33.4931 23.8501 34.0749C23.631 34.6532 23.3179 35.0998 22.9107 35.4146C22.5035 35.7294 22.0142 35.8868 21.4427 35.8868ZM21.4427 34.927C21.7746 34.927 22.0569 34.8089 22.2896 34.5728C22.5257 34.3367 22.7054 34.0013 22.8286 33.5667C22.9552 33.1287 23.0185 32.6086 23.0185 32.0063V31.996C23.0185 31.3937 22.9552 30.8753 22.8286 30.4407C22.7054 30.0061 22.5257 29.6725 22.2896 29.4398C22.0569 29.2037 21.7746 29.0856 21.4427 29.0856C21.1142 29.0856 20.8318 29.2037 20.5957 29.4398C20.363 29.6725 20.1834 30.0061 20.0568 30.4407C19.9336 30.8753 19.872 31.3937 19.872 31.996V32.0063C19.872 32.6086 19.9336 33.1287 20.0568 33.5667C20.1834 34.0013 20.363 34.3367 20.5957 34.5728C20.8318 34.8089 21.1142 34.927 21.4427 34.927Z" fill="white"/>
<path d="M12.5367 35.7072V34.9218L15.0005 32.3451C15.329 32.0029 15.584 31.7223 15.7654 31.5033C15.9467 31.2808 16.0733 31.0823 16.1452 30.9078C16.2205 30.7333 16.2581 30.5451 16.2581 30.3432V30.3329C16.2581 30.09 16.2051 29.8744 16.099 29.6862C15.9963 29.4945 15.8475 29.3457 15.6524 29.2396C15.4574 29.1301 15.2247 29.0753 14.9543 29.0753C14.6806 29.0753 14.4393 29.1318 14.2306 29.2447C14.0218 29.3577 13.8593 29.5151 13.7429 29.717C13.6266 29.9189 13.5684 30.155 13.5684 30.4253V30.4459L12.4802 30.4407L12.4751 30.4305C12.4785 29.9788 12.588 29.5801 12.8036 29.2345C13.0192 28.8854 13.3186 28.6134 13.7019 28.4183C14.0851 28.2198 14.5249 28.1206 15.0211 28.1206C15.4796 28.1206 15.8885 28.2113 16.2479 28.3927C16.6106 28.5706 16.8963 28.8187 17.1051 29.1369C17.3138 29.4518 17.4182 29.8128 17.4182 30.22V30.2354C17.4182 30.516 17.3668 30.7881 17.2642 31.0515C17.1615 31.315 16.9836 31.6042 16.7304 31.919C16.4805 32.2338 16.1315 32.6137 15.6832 33.0586L13.8148 34.9218L14.1125 34.4034V34.9218L13.8199 34.7216H17.5362V35.7072H12.5367Z" fill="white"/>
<path d="M4.65186 33.9312C4.08723 33.9312 3.64237 33.7601 3.31728 33.4179C2.99219 33.0722 2.82965 32.6017 2.82965 32.0063V32.0011C2.82965 31.4057 2.99219 30.9369 3.31728 30.5947C3.64237 30.2491 4.08552 30.0763 4.64673 30.0763C4.95471 30.0763 5.23018 30.1362 5.47314 30.2559C5.71953 30.3723 5.918 30.5348 6.06857 30.7436C6.22256 30.9489 6.30982 31.1867 6.33036 31.457V31.4981H5.52447V31.4776C5.48683 31.2825 5.38759 31.1234 5.22676 31.0002C5.06935 30.877 4.87601 30.8154 4.64673 30.8154C4.3456 30.8154 4.10777 30.9215 3.93324 31.1337C3.76214 31.3424 3.67659 31.6316 3.67659 32.0011V32.0063C3.67659 32.3724 3.76386 32.6616 3.93838 32.8738C4.1129 33.0859 4.35073 33.192 4.65186 33.192C4.88114 33.192 5.07277 33.1338 5.22676 33.0175C5.38417 32.9011 5.48341 32.7489 5.52447 32.5606L5.52961 32.535H6.33549L6.33036 32.5709C6.3064 32.8378 6.21914 33.0739 6.06857 33.2793C5.92143 33.4846 5.72637 33.6454 5.48341 33.7618C5.24045 33.8747 4.96327 33.9312 4.65186 33.9312ZM7.90619 31.9857C7.90619 31.5238 7.82064 31.0926 7.64954 30.6922C7.48186 30.2919 7.24745 29.9411 6.94632 29.64C6.64518 29.3388 6.29442 29.1044 5.89405 28.9367C5.49368 28.7656 5.0625 28.6801 4.60053 28.6801H4.5646C4.09921 28.6801 3.66633 28.7656 3.26595 28.9367C2.86558 29.1044 2.51483 29.3388 2.21369 29.64C1.91598 29.9411 1.68157 30.2919 1.51047 30.6922C1.34279 31.0926 1.25895 31.5238 1.25895 31.9857V32.0217C1.25895 32.4836 1.34279 32.9148 1.51047 33.3152C1.68157 33.7156 1.91598 34.0663 2.21369 34.3675C2.51483 34.6686 2.86558 34.9047 3.26595 35.0758C3.66633 35.2435 4.09921 35.3273 4.5646 35.3273H4.60053C5.0625 35.3273 5.49368 35.2435 5.89405 35.0758C6.29442 34.9047 6.64518 34.6686 6.94632 34.3675C7.24745 34.0663 7.48186 33.7156 7.64954 33.3152C7.82064 32.9148 7.90619 32.4836 7.90619 32.0217V31.9857ZM8.66587 31.9857V32.0217C8.66587 32.5932 8.5615 33.1253 8.35276 33.618C8.14744 34.1074 7.85828 34.5386 7.48528 34.9116C7.1157 35.2811 6.68453 35.5686 6.19176 35.7739C5.699 35.9826 5.16859 36.087 4.60053 36.087H4.5646C3.99313 36.087 3.46101 35.9826 2.96824 35.7739C2.47889 35.5686 2.04772 35.2811 1.67472 34.9116C1.30515 34.5386 1.01599 34.1074 0.807248 33.618C0.601928 33.1253 0.499268 32.5932 0.499268 32.0217V31.9857C0.499268 31.4143 0.601928 30.8839 0.807248 30.3945C1.01599 29.9017 1.30515 29.4706 1.67472 29.101C2.04772 28.728 2.47889 28.4388 2.96824 28.2335C3.46101 28.0248 3.99313 27.9204 4.5646 27.9204H4.60053C5.16859 27.9204 5.699 28.0248 6.19176 28.2335C6.68453 28.4388 7.1157 28.728 7.48528 29.101C7.85828 29.4706 8.14744 29.9017 8.35276 30.3945C8.5615 30.8839 8.66587 31.4143 8.66587 31.9857Z" fill="white"/>
</svg>
