<svg width="116" height="24" viewBox="0 0 116 24" fill="none" xmlns="http://www.w3.org/2000/svg">
<g clip-path="url(#clip0_13477_1268)">
<path d="M108.684 19.7423C104.599 19.7423 101.996 17.0063 101.996 12.5657C101.996 8.12502 104.571 5.38904 108.684 5.38904C112.798 5.38904 115.287 8.07074 115.287 12.4542V13.3769H105.243C105.411 15.862 106.921 17.0899 108.74 17.0899C110.082 17.0899 111.257 16.4195 111.818 15.1623H115.063C114.196 18.067 111.929 19.7423 108.684 19.7423ZM112.069 10.9461C111.733 9.01989 110.418 8.0414 108.738 8.0414C107.059 8.0414 105.744 9.01843 105.353 10.9461H112.069Z" fill="#0E030C"/>
<path d="M18.2879 19.543L12.9436 5.58148H16.4131L19.2386 13.4549C19.463 14.0139 19.7711 15.9401 19.7711 16.1073H20.3579C20.3579 15.9401 20.6938 14.0139 20.889 13.4549L23.7423 5.58148H27.2397L21.8675 19.543H18.285H18.2879Z" fill="#0E030C"/>
<path d="M6.68664 19.7423C2.60248 19.7423 0 17.0048 0 12.5657C0 8.12648 2.57461 5.38904 6.68664 5.38904C10.7987 5.38904 13.2897 8.07074 13.2897 12.4542V13.3769H3.2465C3.4152 15.862 4.92476 17.0899 6.74386 17.0899C8.08617 17.0899 9.26125 16.4195 9.82165 15.1623H13.0681C12.2011 18.067 9.93461 19.7423 6.68811 19.7423H6.68664ZM10.0725 10.9461C9.73656 9.01989 8.42212 8.0414 6.74239 8.0414C5.06266 8.0414 3.74822 9.01843 3.35652 10.9461H10.0725Z" fill="#0E030C"/>
<path d="M33.5054 19.7423C29.4212 19.7423 26.8187 17.0063 26.8187 12.5657C26.8187 8.12502 29.3934 5.38904 33.5054 5.38904C37.6174 5.38904 40.1084 8.07074 40.1084 12.4542V13.3769H30.0638C30.231 15.862 31.742 17.0899 33.5611 17.0899C34.9035 17.0899 36.0785 16.4195 36.6389 15.1623H39.884C39.017 18.067 36.7504 19.7423 33.5039 19.7423H33.5054ZM36.8913 10.9461C36.5553 9.01989 35.2409 8.0414 33.5611 8.0414C31.8814 8.0414 30.5684 9.01843 30.1753 10.9461H36.8913Z" fill="#0E030C"/>
<path d="M41.6432 19.5445V5.58295H44.608L44.6359 6.14188C44.6638 6.72869 44.5523 7.45486 44.3572 8.09594L44.944 8.26318C45.475 6.47636 46.6222 5.58148 48.61 5.58148H50.0374V8.31746H48.61C46.568 8.31746 44.9161 9.43386 44.9161 12.5615V19.5416H41.6432V19.5445Z" fill="#0E030C"/>
<path d="M65.9187 5.5821H62.3979L59.4903 12.8908C59.2658 13.4482 58.8756 15.3729 58.8756 15.5123H58.2609C58.2609 15.3729 57.8692 13.4482 57.6462 12.8908L54.768 5.5821H51.1899L56.0853 16.9353L56.8849 18.8043L56.8878 18.8116L56.989 19.0463L56.9142 19.2591C56.722 19.7828 56.5298 20.1642 56.1719 20.4239C55.7538 20.7275 54.5215 20.8654 53.3846 20.8654H52.5836V23.4694H55.0262C56.8394 23.4694 57.9514 22.9647 58.8507 21.7295C59.1763 21.2821 59.4624 20.7393 59.7265 20.0894L61.5324 15.7837L64.7172 8.36062L65.9187 5.57916H65.9202L65.9187 5.5821Z" fill="#0E030C"/>
<path d="M75.8021 19.7423C71.7179 19.7423 69.1154 17.0063 69.1154 12.5657C69.1154 8.12502 71.69 5.38904 75.8021 5.38904C79.9141 5.38904 82.4051 8.07074 82.4051 12.4542V13.3769H72.3605C72.5277 15.862 74.0387 17.0899 75.8578 17.0899C77.2001 17.0899 78.3767 16.4195 78.9356 15.1623H82.1806C81.3136 18.067 79.0471 19.7423 75.8006 19.7423H75.8021ZM79.1879 10.9461C78.852 9.01989 77.5375 8.0414 75.8593 8.0414C74.181 8.0414 72.8651 9.01843 72.4734 10.9461H79.1879Z" fill="#0E030C"/>
<path d="M83.8306 19.5461V-0.000366211H87.1049V19.5461H83.8306Z" fill="#0E030C"/>
<path d="M100.396 13.2098C100.032 12.6582 99.5246 12.2328 98.885 11.9438C98.2527 11.6592 97.5339 11.4333 96.7461 11.2734L93.9368 10.7159C93.3911 10.6132 92.9598 10.4474 92.6532 10.2259C92.3568 10.0132 92.2116 9.7418 92.2116 9.39412C92.2116 8.94228 92.414 8.59313 92.8321 8.32467C93.2546 8.05181 93.8385 7.91391 94.5661 7.91391C95.3495 7.91391 96.0097 8.07968 96.5261 8.40536C97.0366 8.72663 97.3491 9.17114 97.4562 9.7286L97.4693 9.79902H100.645L100.632 9.70073C100.518 8.82052 100.186 8.05034 99.6435 7.41219C99.1036 6.77697 98.3892 6.27232 97.5192 5.91437C96.6508 5.55789 95.6576 5.37598 94.5661 5.37598C93.4747 5.37598 92.4419 5.55642 91.6116 5.91437C90.7783 6.27232 90.124 6.75937 89.6663 7.36231C89.2071 7.96965 88.9754 8.65328 88.9754 9.39119C88.9754 10.2553 89.1705 10.9638 89.5534 11.4978C89.9348 12.0289 90.457 12.4499 91.1055 12.7477C91.7436 13.0411 92.4478 13.27 93.2003 13.4313L95.8424 13.9888C96.4248 14.0915 96.8796 14.2646 97.1936 14.5023C97.5016 14.734 97.6498 15.0333 97.6498 15.4147C97.6498 15.9194 97.4063 16.3111 96.906 16.6148C96.3999 16.9228 95.7163 17.0798 94.8742 17.0798C93.8136 17.0798 92.992 16.8407 92.4302 16.3712C91.9915 16.003 91.7143 15.5981 91.5969 15.1624H88.3621C88.4663 15.9737 88.7612 16.7072 89.2438 17.3512C89.7954 18.0876 90.5524 18.6774 91.4957 19.1043C92.4375 19.5326 93.5744 19.7498 94.8727 19.7498C96.0757 19.7498 97.1437 19.5546 98.0503 19.1718C98.9598 18.7874 99.6743 18.2651 100.177 17.6197C100.682 16.9712 100.937 16.2216 100.937 15.3913C100.937 14.4949 100.754 13.76 100.39 13.2069L100.396 13.2098Z" fill="#0E030C"/>
</g>
<defs>
<clipPath id="clip0_13477_1268">
<rect width="115.285" height="23.4722" fill="white"/>
</clipPath>
</defs>
</svg>
