<svg width="343" height="144" viewBox="0 0 343 144" fill="none" xmlns="http://www.w3.org/2000/svg">
<path d="M12.2569 125.534V131.463H14.5639V132.783H12.2569V140.391H10.6778V125.534H12.2569ZM0.675082 136.429C4.40851 134.568 6.42784 131.879 6.76244 128.41H1.42059V127.107H8.365C8.35326 131.398 6.4572 135.237 1.55561 137.65L0.675082 136.429ZM28.6345 137.315V138.624H15.0216V137.315H21.0092V134.697H16.677V129.966H25.4118V127.876H16.6476V126.59H26.9674V131.234H18.2443V133.406H27.3137V134.697H22.5706V137.315H28.6345ZM46.7973 137.251V138.554H33.1844V137.251H39.1719V133.811H34.7341V126.725H45.1654V133.811H40.7334V137.251H46.7973ZM36.2779 132.56H43.6215V127.999H36.2779V132.56ZM59.5823 132.596V133.881H49.2274V126.872H59.4532V128.164H50.783V132.596H59.5823ZM47.5368 138.448V137.139H61.1497V138.448H47.5368ZM74.6802 125.534V140.409H73.1657V125.534H74.6802ZM62.0535 131.956C62.0535 128.739 63.3156 126.725 65.2527 126.725C67.0607 126.725 68.2876 128.44 68.4755 131.234H70.1543V125.821H71.6571V139.675H70.1543V132.513H68.4813C68.3346 135.419 67.096 137.215 65.2527 137.21C63.3156 137.215 62.0535 135.19 62.0535 131.956ZM63.521 131.956C63.5093 134.327 64.1844 135.719 65.2527 135.707C66.3505 135.719 67.0314 134.327 67.0314 131.956C67.0314 129.59 66.3505 128.205 65.2527 128.205C64.1844 128.205 63.5093 129.59 63.521 131.956ZM81.6068 129.32C81.601 132.044 83.1272 134.756 85.399 135.777L84.448 137.045C82.7515 136.194 81.4718 134.515 80.8202 132.478C80.1628 134.621 78.8655 136.429 77.1573 137.315L76.1593 136.047C78.4604 134.944 79.9984 132.073 80.0102 129.32V126.772H81.6068V129.32ZM83.7671 131.756V130.477H87.0837V125.534H88.6452V140.438H87.0837V131.756H83.7671ZM102.634 129.89V131.152H92.3843V126.074H93.9458V129.89H102.634ZM90.5704 134.286V133.024H104.183V134.286H90.5704ZM92.2728 140.057V135.701H93.8401V138.771H102.728V140.057H92.2728ZM112.971 126.045C115.208 126.05 116.858 127.424 116.869 129.379C116.858 131.328 115.208 132.69 112.971 132.69C110.706 132.69 109.056 131.328 109.056 129.379C109.056 127.424 110.706 126.05 112.971 126.045ZM110.594 129.379C110.582 130.6 111.598 131.41 112.971 131.41C114.333 131.41 115.343 130.6 115.343 129.379C115.343 128.164 114.333 127.348 112.971 127.354C111.598 127.348 110.582 128.164 110.594 129.379ZM111.31 135.044V133.793H121.096V137.532H112.889V138.959H121.583V140.221H111.357V136.358H119.528V135.044H111.31ZM119.517 133.106V125.534H121.096V133.106H119.517ZM136.698 134.28V135.537H130.629V140.409H129.079V135.537H123.086V134.28H136.698ZM124.782 132.596V126.138H126.344V128.076H133.423V126.138H134.996V132.596H124.782ZM126.344 131.328H133.423V129.338H126.344V131.328ZM153.188 126.203V127.512C153.182 128.915 153.182 130.412 152.771 132.437L151.21 132.302C151.38 131.504 151.48 130.788 151.539 130.124L142.698 130.523L142.487 129.203L151.609 128.944C151.621 128.451 151.627 127.976 151.627 127.512V127.477H142.869V126.203H153.188ZM141.289 134.615V133.347H146.649V131.269H148.234V133.347H154.814V134.615H141.289ZM142.962 140.18V135.771H144.536V138.894H153.499V140.18H142.962ZM168.298 125.546V136.681H166.807V125.546H168.298ZM156.282 134.327V126.731H161.952V128.017H157.796V129.878H161.365V131.099H157.796V133.042C159.757 133.036 161.048 132.977 162.569 132.678L162.733 133.94C161.013 134.263 159.598 134.327 157.244 134.327H156.282ZM158.506 140.104V135.449H160.103V138.812H168.732V140.104H158.506ZM162.04 130.975V129.713H163.884V125.839H165.386V136.306H163.884V130.975H162.04ZM183.59 137.257V138.554H169.977V137.257H183.59ZM170.681 133.67C173.698 133.177 175.894 131.328 175.97 129.109H171.209V127.823H175.988V125.845H177.537V127.823H182.322V129.109H177.567C177.631 131.328 179.815 133.177 182.85 133.67L182.222 134.938C179.756 134.486 177.719 133.23 176.757 131.41C175.8 133.23 173.751 134.486 171.292 134.938L170.681 133.67ZM195.917 125.534V131.463H198.224V132.783H195.917V140.391H194.338V125.534H195.917ZM184.335 136.429C188.068 134.568 190.088 131.879 190.422 128.41H185.08V127.107H192.025C192.013 131.398 190.117 135.237 185.215 137.65L184.335 136.429ZM216.105 137.262V138.566H202.492V137.262H208.479V134.21H204.041V126.549H205.621V129.115H212.923V126.549H214.49V134.21H210.041V137.262H216.105ZM205.621 132.93H212.923V130.383H205.621V132.93ZM229.166 125.534V140.438H227.581V125.534H229.166ZM217.355 131.868C217.355 128.68 218.957 126.655 221.2 126.649C223.419 126.655 225.039 128.68 225.039 131.868C225.039 135.073 223.419 137.098 221.2 137.098C218.957 137.098 217.355 135.073 217.355 131.868ZM218.875 131.868C218.875 134.228 219.826 135.683 221.2 135.683C222.573 135.683 223.513 134.228 223.513 131.868C223.513 129.526 222.573 128.07 221.2 128.058C219.826 128.07 218.875 129.526 218.875 131.868ZM236.668 129.925C236.668 132.408 238.299 134.979 240.589 135.953L239.726 137.198C237.971 136.423 236.585 134.779 235.893 132.807C235.2 134.92 233.803 136.728 232.077 137.568L231.155 136.323C233.398 135.278 235.059 132.478 235.071 129.925V128.334H231.678V127.031H240.06V128.334H236.668V129.925ZM241.933 140.409V125.534H243.518V140.409H241.933ZM253.492 126.338C255.74 126.338 257.396 127.77 257.396 129.784C257.396 131.815 255.74 133.235 253.492 133.241C251.249 133.235 249.571 131.815 249.582 129.784C249.571 127.77 251.249 126.338 253.492 126.338ZM250.856 140.01V134.486H252.394V138.718C253.263 138.671 254.267 138.548 255.212 138.231L255.453 139.475C254.067 139.951 252.729 140.01 251.608 140.01H250.856ZM251.12 129.784C251.109 131.058 252.142 131.944 253.492 131.944C254.842 131.944 255.863 131.058 255.863 129.784C255.863 128.528 254.842 127.647 253.492 127.647C252.142 127.647 251.109 128.528 251.12 129.784ZM254.93 135.736V134.539H257.936V133.318H259.474V134.539H262.444V135.736H254.93ZM255.875 138.296C255.863 137.004 257.014 136.188 258.681 136.182C260.331 136.188 261.487 137.004 261.499 138.296C261.487 139.581 260.331 140.385 258.681 140.385C257.014 140.385 255.863 139.581 255.875 138.296ZM257.278 138.296C257.278 138.906 257.865 139.276 258.681 139.276C259.491 139.276 260.072 138.906 260.078 138.296C260.072 137.691 259.491 137.309 258.681 137.298C257.865 137.309 257.278 137.691 257.278 138.296ZM259.468 132.936V125.534H261.047V128.798H263.201V130.107H261.047V132.936H259.468ZM270.48 125.78C273.832 125.78 275.787 126.684 275.787 128.334C275.787 130.007 273.832 130.911 270.48 130.923C267.128 130.911 265.162 130.007 265.162 128.334C265.162 126.684 267.128 125.78 270.48 125.78ZM263.712 133.089V131.827H277.272V133.089H263.712ZM265.326 135.413V134.233H275.552V137.714H266.899V139.047H275.98V140.268H265.355V136.581H274.002V135.413H265.326ZM266.811 128.334C266.799 129.261 268.114 129.737 270.48 129.737C272.863 129.737 274.172 129.261 274.172 128.334C274.172 127.465 272.863 126.949 270.48 126.954C268.114 126.949 266.799 127.465 266.811 128.334ZM289.482 126.843C289.482 128.821 291.895 130.676 294.824 131.069L294.196 132.355C291.766 131.968 289.635 130.7 288.666 128.95C287.698 130.711 285.567 131.968 283.148 132.355L282.514 131.069C285.432 130.676 287.839 128.845 287.839 126.843V126.033H289.482V126.843ZM281.874 135.12V133.817H295.435V135.12H289.394V140.409H287.844V135.12H281.874ZM305.191 135.36C305.191 136.64 305.831 137.99 307.175 138.8C308.537 137.92 309.212 136.499 309.212 135.36V134.65H310.762V135.36C310.75 136.91 311.772 138.401 313.709 139.041L312.928 140.192C311.461 139.687 310.463 138.695 309.946 137.474C309.476 138.665 308.584 139.763 307.222 140.327C305.79 139.792 304.886 138.742 304.428 137.521C303.894 138.695 302.908 139.681 301.505 140.192L300.718 139.041C302.626 138.348 303.659 136.805 303.671 135.36V134.65H305.191V135.36ZM300.337 129.884C300.337 127.806 302.015 126.373 304.299 126.373C306.577 126.373 308.25 127.806 308.25 129.884C308.25 131.944 306.577 133.376 304.299 133.376C302.015 133.376 300.337 131.944 300.337 129.884ZM301.88 129.884C301.869 131.181 302.884 132.061 304.299 132.067C305.696 132.061 306.706 131.181 306.706 129.884C306.706 128.58 305.696 127.7 304.299 127.712C302.884 127.7 301.869 128.58 301.88 129.884ZM310.797 134.01V125.546H312.376V134.01H310.797ZM318.422 126.649C320.436 126.655 321.915 128.363 322.15 131.11H325.232V125.534H326.793V140.438H325.232V132.396H322.162C321.997 135.296 320.495 137.098 318.422 137.098C316.198 137.098 314.636 135.073 314.648 131.868C314.636 128.68 316.198 126.655 318.422 126.649ZM316.151 131.868C316.151 134.228 317.072 135.683 318.422 135.683C319.761 135.683 320.688 134.228 320.688 131.868C320.688 129.526 319.761 128.07 318.422 128.058C317.072 128.07 316.151 129.526 316.151 131.868ZM342.355 137.251V138.554H328.742V137.251H332V133.359C330.773 132.69 330.028 131.621 330.028 130.289C330.028 127.946 332.323 126.408 335.51 126.397C338.71 126.408 341.011 127.946 341.011 130.289C341.011 131.604 340.289 132.654 339.091 133.329V137.251H342.355ZM331.56 130.289C331.56 131.879 333.18 132.919 335.51 132.919C337.829 132.919 339.473 131.879 339.473 130.289C339.473 128.68 337.829 127.659 335.51 127.671C333.18 127.659 331.56 128.68 331.56 130.289ZM333.55 137.251H337.5V133.934C336.89 134.075 336.221 134.151 335.51 134.151C334.806 134.151 334.148 134.075 333.55 133.94V137.251Z" fill="#CFCFCF"/>
<path d="M21.1138 88.0801V90.4586H10.7878V88.0801H14.5171V85.4199H17.4591V88.0801H21.1138ZM11.3016 96.4669C11.2933 93.5166 13.2823 91.4199 16.0005 91.4199C18.727 91.4199 20.6745 93.5166 20.6828 96.4669C20.6745 99.4586 18.727 101.564 16.0005 101.564C13.2823 101.564 11.2933 99.4586 11.3016 96.4669ZM13.9287 96.4669C13.9204 98.0994 14.7657 99.0359 16.0005 99.0276C17.2022 99.0359 18.0475 98.0994 18.0557 96.4669C18.0475 94.8674 17.2022 93.8978 16.0005 93.8978C14.7657 93.8978 13.9204 94.8674 13.9287 96.4669ZM21.901 105.243V85.2376H24.7022V93.5083H26.4342V84.8149H29.2767V106.163H26.4342V95.895H24.7022V105.243H21.901ZM48.0472 84.8149V89.895H50.8815V92.3232H48.0472V97.1713H45.0141V84.8149H48.0472ZM31.8373 96.0193V86.2569H41.434V88.6602H34.8041V93.6077C38.7654 93.5912 40.9367 93.4586 43.3152 92.9613L43.5804 95.3564C40.945 95.9282 38.434 96.0193 33.6107 96.0193H31.8373ZM33.7102 101.829C33.7019 99.1436 36.561 97.5525 41.0113 97.5442C45.4119 97.5525 48.213 99.1436 48.213 101.829C48.213 104.564 45.4119 106.163 41.0113 106.155C36.561 106.163 33.7019 104.564 33.7102 101.829ZM36.6605 101.829C36.6522 103.113 38.2185 103.785 41.0113 103.785C43.7295 103.785 45.3041 103.113 45.3124 101.829C45.3041 100.569 43.7295 99.9144 41.0113 99.9227C38.2185 99.9144 36.6522 100.569 36.6605 101.829ZM64.4767 89.6547C64.4684 93.6657 66.0844 97.5691 69.6314 99.1022L67.8247 101.481C65.4463 100.337 63.8551 98.2155 62.9684 95.5801C62.0485 98.3729 60.4076 100.669 57.9711 101.87L56.0982 99.442C59.7446 97.7845 61.4187 93.6657 61.4352 89.6547V86.4641H64.4767V89.6547ZM67.2612 93.9475V91.5359H71.438V84.8149H74.3966V106.213H71.438V93.9475H67.2612ZM94.5179 84.8149V106.213H91.493V84.8149H94.5179ZM77.7278 101.215V86.5304H80.7195V91.7099H85.319V86.5304H88.261V101.215H77.7278ZM80.7195 98.7873H85.319V94.0387H80.7195V98.7873ZM108.15 87.6326C108.142 90.7652 110.91 94.105 115.741 94.9254L114.424 97.4116C110.703 96.674 107.943 94.5773 106.567 91.8425C105.167 94.5608 102.399 96.6657 98.7027 97.4116L97.4182 94.9254C102.159 94.0801 104.943 90.732 104.96 87.6326V86.0994H108.15V87.6326ZM96.9292 103.544V101.083H116.438V103.544H96.9292ZM134.512 90.6492V92.9945H119.611V85.5773H122.586V90.6492H134.512ZM117.167 97.6188V95.2735H136.675V97.6188H117.167ZM119.412 105.691V99.3674H122.404V103.287H134.644V105.691H119.412ZM159.328 84.8149V92.9945H162.345V95.4641H159.328V106.113H156.336V84.8149H159.328ZM142.273 100.138C147.311 97.6022 150.021 94.2044 150.585 89.4475H143.474V87.0028H153.635C153.618 93.384 151.124 98.9033 143.955 102.425L142.273 100.138ZM182.275 101.331V103.776H162.767V101.331H170.996V98.1077H165.013V90.9309H177.071V88.6105H164.98V86.2072H180.029V93.2762H167.996V95.6796H180.527V98.1077H173.955V101.331H182.275ZM207.589 101.224V103.66H188.08V101.224H196.31V96.8481H190.144V86.3978H205.417V96.8481H199.268V101.224H207.589ZM193.094 94.5028H202.467V88.7928H193.094V94.5028ZM225.721 94.7017V97.0967H210.638V86.605H225.572V89.0249H213.589V94.7017H225.721ZM208.343 103.561V101.099H227.851V103.561H208.343ZM251.631 84.8481V100.42H248.648V92.779H245.159V90.3674H248.648V84.8481H251.631ZM233.532 95.6215C237.054 94.511 238.653 91.7265 238.662 89V88.6768H234.385V86.2818H245.954V88.6768H241.703V89.0166C241.703 91.4945 243.22 94.1381 246.609 95.2403L245.134 97.6105C242.772 96.8398 241.148 95.2818 240.22 93.3591C239.275 95.489 237.576 97.2044 235.065 98.0414L233.532 95.6215ZM237.477 105.79V99.0608H240.46V103.378H252.137V105.79H237.477ZM273.377 94.942V97.3287H253.918V94.942H258.294V92.3729C256.744 91.6851 255.858 90.616 255.866 89.2486C255.858 86.6796 258.891 85.1381 263.631 85.1298C268.355 85.1381 271.38 86.6796 271.388 89.2486C271.38 90.6409 270.476 91.7099 268.885 92.3978V94.942H273.377ZM256.139 102.276C256.139 99.8066 258.94 98.4309 263.606 98.4392C268.222 98.4309 271.023 99.8066 271.04 102.276C271.023 104.779 268.222 106.138 263.606 106.13C258.94 106.138 256.139 104.779 256.139 102.276ZM258.974 89.2486C258.957 90.4337 260.623 91.0221 263.631 91.0221C266.614 91.0221 268.305 90.4337 268.305 89.2486C268.305 88.0552 266.614 87.4337 263.631 87.4337C260.623 87.4337 258.957 88.0552 258.974 89.2486ZM259.189 102.276C259.172 103.354 260.656 103.909 263.606 103.901C266.507 103.909 268.032 103.354 268.04 102.276C268.032 101.207 266.507 100.71 263.606 100.693C260.656 100.71 259.172 101.207 259.189 102.276ZM261.319 94.942H265.91V93.1436C265.206 93.2348 264.443 93.2762 263.631 93.2762C262.802 93.2762 262.032 93.2348 261.319 93.1436V94.942ZM292.031 84.8149V96.2928H289.031V84.8149H292.031ZM274.504 90.7735C274.495 87.7818 277.006 85.7017 280.338 85.7099C283.661 85.7017 286.164 87.7818 286.164 90.7735C286.164 93.6906 283.661 95.7707 280.338 95.7707C277.006 95.7707 274.495 93.6906 274.504 90.7735ZM277.429 90.7735C277.413 92.3646 278.631 93.3094 280.338 93.3177C282.004 93.3094 283.214 92.3646 283.214 90.7735C283.214 89.174 282.004 88.1961 280.338 88.2044C278.631 88.1961 277.413 89.174 277.429 90.7735ZM277.769 105.923V97.2293H280.711V99.2099H289.048V97.2293H292.031V105.923H277.769ZM280.711 103.503H289.048V101.53H280.711V103.503ZM312.376 84.8149V106.163H309.401V84.8149H312.376ZM295.586 100.892V86.8619H298.545V98.3398C301.421 98.2901 304.52 98.0249 307.653 97.4116L308.026 99.8812C304.288 100.66 300.758 100.901 297.468 100.892H295.586ZM331.528 84.8149V92.7459H334.677V95.1906H331.528V106.213H328.536V84.8149H331.528ZM315.55 101.025V86.8039H325.553V89.2155H318.525V98.5635C321.616 98.5387 324.177 98.3729 326.995 97.884L327.326 100.387C324.02 100.95 321.111 101.033 317.34 101.025H315.55Z" fill="white"/>
<circle cx="171" cy="32" r="32" fill="white"/>
<rect x="168" y="17" width="6" height="20" fill="#010101"/>
<rect x="168" y="42" width="6" height="6" fill="#010101"/>
</svg>
